<mxfile host="app.diagrams.net" modified="2023-11-01T21:40:31.549Z" agent="Mozilla/5.0 (Macintosh; Intel Mac OS X 10_15_7) AppleWebKit/537.36 (KHTML, like Gecko) Chrome/118.0.0.0 Safari/537.36" etag="t7rg7CObMfACEfXjTdb1" version="22.0.8" type="device">
  <diagram name="Page-1" id="Un3Zq-IWOUkNOSXB03pV">
    <mxGraphModel dx="1642" dy="663" grid="1" gridSize="10" guides="1" tooltips="1" connect="1" arrows="1" fold="1" page="1" pageScale="1" pageWidth="850" pageHeight="1100" math="0" shadow="0">
      <root>
        <mxCell id="0" />
        <mxCell id="1" parent="0" />
        <mxCell id="MZy7g6CcSSZEBQUF_aK8-1" value="&lt;font style=&quot;font-size: 10px;&quot;&gt;&lt;br&gt;(ETH,DAI)&lt;/font&gt;" style="ellipse;whiteSpace=wrap;html=1;aspect=fixed;fillColor=#f5f5f5;fontColor=#333333;strokeColor=#666666;strokeWidth=3;" parent="1" vertex="1">
          <mxGeometry x="197" y="124.43" width="90" height="90" as="geometry" />
        </mxCell>
        <mxCell id="MZy7g6CcSSZEBQUF_aK8-2" value="&lt;font style=&quot;font-size: 10px;&quot;&gt;&lt;sub&gt;&amp;nbsp;&lt;/sub&gt;&lt;br&gt;(iETH, DAI)&lt;/font&gt;" style="ellipse;whiteSpace=wrap;html=1;aspect=fixed;fillColor=#dae8fc;strokeColor=#6c8ebf;strokeWidth=2;" parent="1" vertex="1">
          <mxGeometry x="5" y="305" width="90" height="90" as="geometry" />
        </mxCell>
        <mxCell id="MZy7g6CcSSZEBQUF_aK8-4" value="&lt;font style=&quot;font-size: 10px;&quot;&gt;&lt;br&gt;(iETH, iDAI)&lt;/font&gt;" style="ellipse;whiteSpace=wrap;html=1;aspect=fixed;fillColor=#e1d5e7;strokeColor=#9673a6;strokeWidth=2;" parent="1" vertex="1">
          <mxGeometry x="195" y="320" width="90" height="90" as="geometry" />
        </mxCell>
        <mxCell id="MZy7g6CcSSZEBQUF_aK8-5" value="&lt;font style=&quot;font-size: 10px;&quot;&gt;&lt;br&gt;(iDAI,ETH)&lt;/font&gt;" style="ellipse;whiteSpace=wrap;html=1;aspect=fixed;fillColor=#f8cecc;strokeColor=#b85450;strokeWidth=2;" parent="1" vertex="1">
          <mxGeometry x="390" y="312.14" width="90" height="90" as="geometry" />
        </mxCell>
        <mxCell id="MZy7g6CcSSZEBQUF_aK8-23" value="&lt;font style=&quot;font-size: 10px;&quot;&gt;&lt;br&gt;(iED,iiED,EiD)&lt;/font&gt;" style="ellipse;whiteSpace=wrap;html=1;fillColor=#d5e8d4;strokeColor=#82b366;strokeWidth=2;" parent="1" vertex="1">
          <mxGeometry x="60" y="470" width="120" height="80" as="geometry" />
        </mxCell>
        <mxCell id="MZy7g6CcSSZEBQUF_aK8-24" value="&lt;font style=&quot;font-size: 10px;&quot;&gt;&lt;br&gt;(DiE,iiDE,iDE)&lt;/font&gt;" style="ellipse;whiteSpace=wrap;html=1;fillColor=#d5e8d4;strokeColor=#82b366;strokeWidth=2;" parent="1" vertex="1">
          <mxGeometry x="300" y="470" width="120" height="80" as="geometry" />
        </mxCell>
        <mxCell id="MZy7g6CcSSZEBQUF_aK8-43" value="&lt;font style=&quot;font-size: 10px;&quot;&gt;(riETH,riDAI)&lt;/font&gt;" style="ellipse;whiteSpace=wrap;html=1;fillColor=#ffe6cc;strokeColor=#d79b00;strokeWidth=4;" parent="1" vertex="1">
          <mxGeometry x="182" y="630" width="120" height="80" as="geometry" />
        </mxCell>
        <mxCell id="MZy7g6CcSSZEBQUF_aK8-45" value="" style="endArrow=classicThin;html=1;rounded=0;exitX=0;exitY=1;exitDx=0;exitDy=0;entryX=1;entryY=0;entryDx=0;entryDy=0;endFill=1;" parent="1" source="MZy7g6CcSSZEBQUF_aK8-4" target="MZy7g6CcSSZEBQUF_aK8-23" edge="1">
          <mxGeometry width="50" height="50" relative="1" as="geometry">
            <mxPoint x="250" y="500" as="sourcePoint" />
            <mxPoint x="300" y="450" as="targetPoint" />
          </mxGeometry>
        </mxCell>
        <mxCell id="_zUGy8LSfI0Ffj2eE6B--6" value="iiED" style="edgeLabel;html=1;align=center;verticalAlign=middle;resizable=0;points=[];" parent="MZy7g6CcSSZEBQUF_aK8-45" vertex="1" connectable="0">
          <mxGeometry x="-0.4212" y="-1" relative="1" as="geometry">
            <mxPoint as="offset" />
          </mxGeometry>
        </mxCell>
        <mxCell id="MZy7g6CcSSZEBQUF_aK8-46" value="" style="endArrow=classicThin;html=1;rounded=0;exitX=1;exitY=1;exitDx=0;exitDy=0;entryX=0;entryY=0;entryDx=0;entryDy=0;endFill=1;" parent="1" source="MZy7g6CcSSZEBQUF_aK8-4" target="MZy7g6CcSSZEBQUF_aK8-24" edge="1">
          <mxGeometry width="50" height="50" relative="1" as="geometry">
            <mxPoint x="270" y="510" as="sourcePoint" />
            <mxPoint x="320" y="460" as="targetPoint" />
          </mxGeometry>
        </mxCell>
        <mxCell id="_zUGy8LSfI0Ffj2eE6B--8" value="iiDE" style="edgeLabel;html=1;align=center;verticalAlign=middle;resizable=0;points=[];" parent="MZy7g6CcSSZEBQUF_aK8-46" vertex="1" connectable="0">
          <mxGeometry x="-0.3589" y="1" relative="1" as="geometry">
            <mxPoint as="offset" />
          </mxGeometry>
        </mxCell>
        <mxCell id="MZy7g6CcSSZEBQUF_aK8-48" value="" style="endArrow=classicThin;html=1;rounded=0;exitX=0.5;exitY=1;exitDx=0;exitDy=0;entryX=0;entryY=0;entryDx=0;entryDy=0;endFill=1;" parent="1" source="MZy7g6CcSSZEBQUF_aK8-2" target="MZy7g6CcSSZEBQUF_aK8-23" edge="1">
          <mxGeometry width="50" height="50" relative="1" as="geometry">
            <mxPoint x="130" y="470" as="sourcePoint" />
            <mxPoint x="180" y="420" as="targetPoint" />
          </mxGeometry>
        </mxCell>
        <mxCell id="_zUGy8LSfI0Ffj2eE6B--5" value="iED" style="edgeLabel;html=1;align=center;verticalAlign=middle;resizable=0;points=[];" parent="MZy7g6CcSSZEBQUF_aK8-48" vertex="1" connectable="0">
          <mxGeometry x="-0.1761" relative="1" as="geometry">
            <mxPoint x="-1" y="-4" as="offset" />
          </mxGeometry>
        </mxCell>
        <mxCell id="MZy7g6CcSSZEBQUF_aK8-51" value="" style="endArrow=classicThin;html=1;rounded=0;exitX=0.5;exitY=1;exitDx=0;exitDy=0;entryX=1;entryY=0;entryDx=0;entryDy=0;endFill=1;" parent="1" source="MZy7g6CcSSZEBQUF_aK8-5" target="MZy7g6CcSSZEBQUF_aK8-24" edge="1">
          <mxGeometry width="50" height="50" relative="1" as="geometry">
            <mxPoint x="390" y="480" as="sourcePoint" />
            <mxPoint x="440" y="430" as="targetPoint" />
          </mxGeometry>
        </mxCell>
        <mxCell id="_zUGy8LSfI0Ffj2eE6B--10" value="iDE" style="edgeLabel;html=1;align=center;verticalAlign=middle;resizable=0;points=[];" parent="MZy7g6CcSSZEBQUF_aK8-51" vertex="1" connectable="0">
          <mxGeometry x="-0.1602" y="1" relative="1" as="geometry">
            <mxPoint x="3" y="-10" as="offset" />
          </mxGeometry>
        </mxCell>
        <mxCell id="MZy7g6CcSSZEBQUF_aK8-77" value="" style="shape=flexArrow;endArrow=classic;html=1;rounded=0;fillColor=#fad7ac;strokeColor=#b46504;" parent="1" edge="1">
          <mxGeometry width="50" height="50" relative="1" as="geometry">
            <mxPoint x="130" y="570" as="sourcePoint" />
            <mxPoint x="180" y="630" as="targetPoint" />
          </mxGeometry>
        </mxCell>
        <mxCell id="6rgcdNTC2bKChod3cp9X-34" value="riETH" style="edgeLabel;html=1;align=center;verticalAlign=middle;resizable=0;points=[];" parent="MZy7g6CcSSZEBQUF_aK8-77" vertex="1" connectable="0">
          <mxGeometry x="-0.1302" y="4" relative="1" as="geometry">
            <mxPoint as="offset" />
          </mxGeometry>
        </mxCell>
        <mxCell id="MZy7g6CcSSZEBQUF_aK8-79" value="" style="endArrow=none;dashed=1;html=1;strokeWidth=4;rounded=0;fillColor=#a0522d;strokeColor=#6D1F00;" parent="1" edge="1">
          <mxGeometry width="50" height="50" relative="1" as="geometry">
            <mxPoint x="-20" y="440" as="sourcePoint" />
            <mxPoint x="640" y="440" as="targetPoint" />
          </mxGeometry>
        </mxCell>
        <mxCell id="MZy7g6CcSSZEBQUF_aK8-82" value="&lt;div style=&quot;&quot;&gt;&lt;span style=&quot;font-size: 20px; background-color: initial;&quot;&gt;DEX Forest&lt;/span&gt;&lt;/div&gt;&lt;font style=&quot;font-size: 15px;&quot;&gt;&lt;span style=&quot;background-color: initial;&quot;&gt;- Decomposition&lt;br&gt;- Uniswap DEXes&lt;/span&gt;&lt;br&gt;&lt;/font&gt;" style="text;html=1;strokeColor=none;fillColor=none;align=left;verticalAlign=middle;whiteSpace=wrap;rounded=0;fontStyle=1" parent="1" vertex="1">
          <mxGeometry x="440" y="125.71000000000001" width="140" height="80" as="geometry" />
        </mxCell>
        <mxCell id="MZy7g6CcSSZEBQUF_aK8-83" value="&lt;font style=&quot;&quot;&gt;&lt;font style=&quot;font-size: 20px;&quot;&gt;Governance (Root)&lt;/font&gt;&lt;br&gt;&lt;span style=&quot;font-size: 15px;&quot;&gt;-&amp;nbsp;&lt;/span&gt;&lt;font style=&quot;font-size: 15px;&quot;&gt;Composable Stable DEXes&lt;/font&gt;&lt;br&gt;&lt;span style=&quot;font-size: 15px;&quot;&gt;- Balancer (Reserve) DEX&lt;/span&gt;&lt;br&gt;&lt;/font&gt;" style="text;html=1;strokeColor=none;fillColor=none;align=left;verticalAlign=middle;whiteSpace=wrap;rounded=0;fontStyle=1" parent="1" vertex="1">
          <mxGeometry x="440" y="630" width="215" height="100" as="geometry" />
        </mxCell>
        <mxCell id="pMO2XXO5Yg7Mydekltx4-5" value="&lt;font style=&quot;font-size: 20px;&quot;&gt;Launch DEX Tree&lt;br&gt;&lt;/font&gt;" style="text;html=1;strokeColor=none;fillColor=none;align=center;verticalAlign=middle;whiteSpace=wrap;rounded=0;fontStyle=1" parent="1" vertex="1">
          <mxGeometry x="182" y="30" width="182.5" height="60" as="geometry" />
        </mxCell>
        <mxCell id="_kSoLv1LG-H4z5vi7hkw-1" value="" style="shape=flexArrow;endArrow=classic;html=1;rounded=0;fillColor=#fad7ac;strokeColor=#b46504;" parent="1" edge="1">
          <mxGeometry width="50" height="50" relative="1" as="geometry">
            <mxPoint x="340" y="570" as="sourcePoint" />
            <mxPoint x="300" y="630" as="targetPoint" />
          </mxGeometry>
        </mxCell>
        <mxCell id="6rgcdNTC2bKChod3cp9X-35" value="riDAI" style="edgeLabel;html=1;align=center;verticalAlign=middle;resizable=0;points=[];" parent="_kSoLv1LG-H4z5vi7hkw-1" vertex="1" connectable="0">
          <mxGeometry x="-0.25" y="-3" relative="1" as="geometry">
            <mxPoint y="4" as="offset" />
          </mxGeometry>
        </mxCell>
        <mxCell id="cFrg4s02PNk72HSlDs-C-2" value="" style="endArrow=none;html=1;rounded=0;entryX=0;entryY=1;entryDx=0;entryDy=0;exitX=0.775;exitY=0.113;exitDx=0;exitDy=0;exitPerimeter=0;startArrow=classicThin;startFill=1;" parent="1" source="MZy7g6CcSSZEBQUF_aK8-2" target="MZy7g6CcSSZEBQUF_aK8-1" edge="1">
          <mxGeometry width="50" height="50" relative="1" as="geometry">
            <mxPoint x="190" y="240" as="sourcePoint" />
            <mxPoint x="240" y="190" as="targetPoint" />
          </mxGeometry>
        </mxCell>
        <mxCell id="_zUGy8LSfI0Ffj2eE6B--1" value="iETH" style="edgeLabel;html=1;align=center;verticalAlign=middle;resizable=0;points=[];" parent="cFrg4s02PNk72HSlDs-C-2" vertex="1" connectable="0">
          <mxGeometry x="0.0208" y="3" relative="1" as="geometry">
            <mxPoint as="offset" />
          </mxGeometry>
        </mxCell>
        <mxCell id="cFrg4s02PNk72HSlDs-C-4" value="" style="endArrow=classicThin;html=1;rounded=0;exitX=1;exitY=1;exitDx=0;exitDy=0;entryX=0;entryY=0;entryDx=0;entryDy=0;endFill=1;" parent="1" source="MZy7g6CcSSZEBQUF_aK8-1" target="MZy7g6CcSSZEBQUF_aK8-5" edge="1">
          <mxGeometry width="50" height="50" relative="1" as="geometry">
            <mxPoint x="410" y="260" as="sourcePoint" />
            <mxPoint x="460" y="210" as="targetPoint" />
          </mxGeometry>
        </mxCell>
        <mxCell id="_zUGy8LSfI0Ffj2eE6B--4" value="iDAI" style="edgeLabel;html=1;align=center;verticalAlign=middle;resizable=0;points=[];" parent="cFrg4s02PNk72HSlDs-C-4" vertex="1" connectable="0">
          <mxGeometry x="-0.0581" y="2" relative="1" as="geometry">
            <mxPoint as="offset" />
          </mxGeometry>
        </mxCell>
        <mxCell id="cFrg4s02PNk72HSlDs-C-5" value="" style="endArrow=none;html=1;rounded=0;exitX=0;exitY=0;exitDx=0;exitDy=0;startArrow=classicThin;startFill=1;" parent="1" source="MZy7g6CcSSZEBQUF_aK8-2" edge="1">
          <mxGeometry width="50" height="50" relative="1" as="geometry">
            <mxPoint x="-10" y="310" as="sourcePoint" />
            <mxPoint x="10" y="310" as="targetPoint" />
          </mxGeometry>
        </mxCell>
        <mxCell id="cFrg4s02PNk72HSlDs-C-7" value="" style="endArrow=none;html=1;rounded=0;exitX=1;exitY=0;exitDx=0;exitDy=0;startArrow=classicThin;startFill=1;" parent="1" source="MZy7g6CcSSZEBQUF_aK8-5" edge="1">
          <mxGeometry width="50" height="50" relative="1" as="geometry">
            <mxPoint x="490" y="310" as="sourcePoint" />
            <mxPoint x="480" y="310" as="targetPoint" />
          </mxGeometry>
        </mxCell>
        <mxCell id="cFrg4s02PNk72HSlDs-C-8" value="" style="endArrow=none;html=1;rounded=0;entryX=0;entryY=1;entryDx=0;entryDy=0;exitX=1;exitY=0.5;exitDx=0;exitDy=0;startArrow=classicThin;startFill=1;" parent="1" source="MZy7g6CcSSZEBQUF_aK8-23" target="MZy7g6CcSSZEBQUF_aK8-5" edge="1">
          <mxGeometry width="50" height="50" relative="1" as="geometry">
            <mxPoint x="50" y="460" as="sourcePoint" />
            <mxPoint x="100" y="410" as="targetPoint" />
          </mxGeometry>
        </mxCell>
        <mxCell id="_zUGy8LSfI0Ffj2eE6B--7" value="EiD" style="edgeLabel;html=1;align=center;verticalAlign=middle;resizable=0;points=[];" parent="cFrg4s02PNk72HSlDs-C-8" vertex="1" connectable="0">
          <mxGeometry x="0.4018" y="1" relative="1" as="geometry">
            <mxPoint as="offset" />
          </mxGeometry>
        </mxCell>
        <mxCell id="cFrg4s02PNk72HSlDs-C-9" value="" style="endArrow=none;html=1;rounded=0;entryX=1;entryY=1;entryDx=0;entryDy=0;exitX=0;exitY=0.5;exitDx=0;exitDy=0;startArrow=classicThin;startFill=1;" parent="1" source="MZy7g6CcSSZEBQUF_aK8-24" target="MZy7g6CcSSZEBQUF_aK8-2" edge="1">
          <mxGeometry width="50" height="50" relative="1" as="geometry">
            <mxPoint x="110" y="430" as="sourcePoint" />
            <mxPoint x="160" y="380" as="targetPoint" />
          </mxGeometry>
        </mxCell>
        <mxCell id="_zUGy8LSfI0Ffj2eE6B--9" value="DiE" style="edgeLabel;html=1;align=center;verticalAlign=middle;resizable=0;points=[];" parent="cFrg4s02PNk72HSlDs-C-9" vertex="1" connectable="0">
          <mxGeometry x="0.497" relative="1" as="geometry">
            <mxPoint as="offset" />
          </mxGeometry>
        </mxCell>
        <mxCell id="cFrg4s02PNk72HSlDs-C-10" value="" style="endArrow=none;html=1;rounded=0;exitX=0;exitY=0;exitDx=0;exitDy=0;startArrow=classicThin;startFill=1;" parent="1" source="MZy7g6CcSSZEBQUF_aK8-1" edge="1">
          <mxGeometry width="50" height="50" relative="1" as="geometry">
            <mxPoint x="130" y="120" as="sourcePoint" />
            <mxPoint x="200" y="120" as="targetPoint" />
          </mxGeometry>
        </mxCell>
        <mxCell id="cFrg4s02PNk72HSlDs-C-11" value="" style="endArrow=none;html=1;rounded=0;exitX=1;exitY=0;exitDx=0;exitDy=0;startArrow=classicThin;startFill=1;" parent="1" source="MZy7g6CcSSZEBQUF_aK8-1" edge="1">
          <mxGeometry width="50" height="50" relative="1" as="geometry">
            <mxPoint x="340" y="150" as="sourcePoint" />
            <mxPoint x="280" y="120" as="targetPoint" />
          </mxGeometry>
        </mxCell>
        <mxCell id="9CZArcAVWp9lpNMHzglu-2" value="" style="endArrow=none;html=1;rounded=0;entryX=0.375;entryY=1.013;entryDx=0;entryDy=0;entryPerimeter=0;exitX=0.35;exitY=0.025;exitDx=0;exitDy=0;exitPerimeter=0;startArrow=classicThin;startFill=1;" parent="1" source="MZy7g6CcSSZEBQUF_aK8-4" target="MZy7g6CcSSZEBQUF_aK8-1" edge="1">
          <mxGeometry width="50" height="50" relative="1" as="geometry">
            <mxPoint x="220" y="280" as="sourcePoint" />
            <mxPoint x="270" y="230" as="targetPoint" />
          </mxGeometry>
        </mxCell>
        <mxCell id="9CZArcAVWp9lpNMHzglu-4" value="iETH" style="edgeLabel;html=1;align=center;verticalAlign=middle;resizable=0;points=[];" parent="9CZArcAVWp9lpNMHzglu-2" vertex="1" connectable="0">
          <mxGeometry x="0.0066" y="-1" relative="1" as="geometry">
            <mxPoint as="offset" />
          </mxGeometry>
        </mxCell>
        <mxCell id="9CZArcAVWp9lpNMHzglu-3" value="" style="endArrow=none;html=1;rounded=0;entryX=0.6;entryY=1.025;entryDx=0;entryDy=0;entryPerimeter=0;exitX=0.613;exitY=0.013;exitDx=0;exitDy=0;exitPerimeter=0;startArrow=classicThin;startFill=1;" parent="1" source="MZy7g6CcSSZEBQUF_aK8-4" target="MZy7g6CcSSZEBQUF_aK8-1" edge="1">
          <mxGeometry width="50" height="50" relative="1" as="geometry">
            <mxPoint x="250" y="280" as="sourcePoint" />
            <mxPoint x="300" y="230" as="targetPoint" />
          </mxGeometry>
        </mxCell>
        <mxCell id="9CZArcAVWp9lpNMHzglu-5" value="iDAI" style="edgeLabel;html=1;align=center;verticalAlign=middle;resizable=0;points=[];" parent="9CZArcAVWp9lpNMHzglu-3" vertex="1" connectable="0">
          <mxGeometry x="-0.3207" y="-3" relative="1" as="geometry">
            <mxPoint as="offset" />
          </mxGeometry>
        </mxCell>
        <mxCell id="6rgcdNTC2bKChod3cp9X-23" value="" style="shape=image;verticalLabelPosition=bottom;labelBackgroundColor=default;verticalAlign=top;aspect=fixed;imageAspect=0;image=data:image/png,iVBORw0KGgoAAAANSUhEUgAAAQoAAAAmCAYAAAA80tUwAAABW2lDQ1BJQ0MgUHJvZmlsZQAAKJF1kL1Lw1AUxU9qJaKBKjiJQsDFIUpptepYq6hQMNQP/AAhTdtU6MfrS6wIbrq5+A/o5P+gOOmsmyII7urkIBZBS7wvVdsqXrjcH4fzLvcdwNdmMJbzA8gXHJ6YnlCXV1ZV+QEdkCCjByOGabOorsfJgu/ZXJVb8lJdD4pdkd3ya7Hr6OZZfXq83Ff2/vqbqj2Vtk2aH9RBk3EHkDRifcthgneIuzkdRXwg2KrxseBkjU89z0IiRnxF3GlmjRTxPbGWbNCtBs7nNs2vG8T1SrqwOC/2UPdCxwziUBHCKCKYwhiW/vEPe/4YimDYBscGLGTh0NsoKQw5pIlnUYCJIWjeziB1WOT8O7+6xuaA8TLgM+ra+iRw0g8ESnVtgP4TyAAXa8zgxk+qUsVvZ8KhGiscaH1z3Zc+QD4Dqtx13w9dt0oZttwB56VPyc5iK2/hwVsAAAXiZVhJZk1NACoAAAAIAAQBGgAFAAAAAQAAAD4BGwAFAAAAAQAAAEYBKAADAAAAAQACAACHaQAEAAAAAQAAAE4AAAAAAAAAkAAAAAEAAACQAAAAAQADkoYABwAABWkAAAB4oAIABAAAAAEAAAEKoAMABAAAAAEAAAAmAAAAAEFTQ0lJAAAAQUFBRkFuamFiVk5yYkJ0RkVKNjlUZHNrVGVKTDBrZWF2cTdFZ1lRK2NOSkFnOHNqVHRPMG9ZbjdPRHR4SEx0bQpmVjdiMTV6dnpOMDZpV3RGMmgrb3JSQUk4YXZRSDBBU0lTaEN2QVFWUWdLRUlJQVFpaUNKb0JJQzFGLzlnL3FqCmZ4Q3FrRmcvS0FWMVY2ZWJtZDJaK2VhYjJYalcwQjNtOGF3aUNWZXRXYnV1TnVTZW9yYWpXK2E0bTloYVdoZGEKd00yc2JNaHR4YzlRalRsTmdNNjlHcE5kZnZVWXpkT0VyM0xwaCtxYWdHMVpqS04zNUYzcjY5cnZ2YStqOC83ZAplL2J1ZStEQmc0LzBEVHh4N09TcDhNUnBRcE5uTWxtV0M3ck5uR0dzMURlNDVGYjNtRi9kTjBuelRsajhLMGxHCjNacEJIT2R5WTFQemhvMmJOcmRzNFJMSHZJcXY0V3Y1T2w3TmEzanQ1YTNidHUvWXFleTZwNDJ2NTNXOGdidDQKSTIvbFcvbDJ2b01yb1RoeHFLR2JOS2haaG1VSE1sYUNCcG5PREJySzJwUms0Z2FOWmtqSzFKTzZScGdvTjVBZwpqSXF5NGtTYlRObFd6a3djS2pxR0hTdG5helJBWjFnYlZOYUtwOHZWdmI4bjZGZFBIZW1QK05YU1JUVkxORHJvClVjUUdHZkg2NVljTzlENGNMcGRoa2d3TmxVWHFqRlVjNW51OUliOTZ2RlN2WExYc2V2U3h4OGNGQVE2emRUUEYKNVJNaWdLKy94UE5JamhHQlZ5MmRMUGdPRmYzS3lzcGgxK0NSbzBPM2RRSEd4NFFVenpIcThDYStoVGZINU9WSQp3dEp5R1dxeUVvS0pMaytXUlF2RVpycG0wTm5hU002aEF2c2tTZEVKSVJheE90RkNpYlZacFYxWUVrclNzc1ZuCk1xVmt2ZE9qUURLT2s4L0V4YzBNWVdubi8yZEY0OTNPSm5JczJSc3Q2R1pXSURXMWNxSmt6bENZcGJCOGxpb0oKM1JhOEdIa2hFTTNXQlZaRlN4T2JhRXhNWjIxeGNJYjlKK1pHK0lhNTQzd2pieG4xcTRNQzRLb2FDTHBHeDBMagpRbGYxczFRUWt4dzBTTW9SdWw4VTF0YlhVVzZoTFBOTmZQUG9pR1VTelJKTVI2S1ZDUE1ScjFCalR3b21CM1N0Ck9CakV6cy9IaXNhNEZwT2I3aUE0VWVaOFB1RzlxNzJ0cjd1Y2F6bmxTdXZGR1dlNlFPQmJ6T2VmdjFDbjhHMGkKNUtRaDBnNkl3WnVmOUJhbnl0emZNOWlsaUEyOHZ0amJwNDRPOFozbExuWW1Zd1Y5ajVhZFZieEtaSUFhakNqRApTc1RXVTJsR2JOdWEvc2VvejRpNFU5TXh1Zm4yNFB4YnlNSlV6QXZWMEFpdDRJWk82SVlETUFURGNCSlVtSVpaCmVCcWVoWXZ3TXJ3QmI4SmI4RGE4QysvREIzQUZQb0tQNFV2NENyNkJiK0U3V0lMdllSbFc0VWU0Q3RmZ092d08KTitFV3FrRU5TRUc3VVE4NmlIeklqNEpvREkyajAwaEhOanFMWnRFNWRBRTloeTZpbDlBbDlBcDZEMzJJUGtXTAphQW45akg1QnY2RnIwaFhwRStrejZYUHBDMmxSK2xwYWtuNlNmcFd1U3pla1A2US9wVnZTWDdnSzEyQVpOK01XCjNJNDc4Rjdjancvak1OWndHbWR4SGhjd3grZnhNL2dGL0NLK2hPZndBbjROdjQ1WDhGVjhvOXdFQ1ZVZTd3ejgKWitHYmZ3UDlKSjQ5AMXbmosAAAAJcEhZcwAAFiUAABYlAUlSJPAAAAhRaVRYdFhNTDpjb20uYWRvYmUueG1wAAAAAAA8eDp4bXBtZXRhIHhtbG5zOng9ImFkb2JlOm5zOm1ldGEvIiB4OnhtcHRrPSJYTVAgQ29yZSA2LjAuMCI+CiAgIDxyZGY6UkRGIHhtbG5zOnJkZj0iaHR0cDovL3d3dy53My5vcmcvMTk5OS8wMi8yMi1yZGYtc3ludGF4LW5zIyI+CiAgICAgIDxyZGY6RGVzY3JpcHRpb24gcmRmOmFib3V0PSIiCiAgICAgICAgICAgIHhtbG5zOnRpZmY9Imh0dHA6Ly9ucy5hZG9iZS5jb20vdGlmZi8xLjAvIgogICAgICAgICAgICB4bWxuczpleGlmPSJodHRwOi8vbnMuYWRvYmUuY29tL2V4aWYvMS4wLyI+CiAgICAgICAgIDx0aWZmOllSZXNvbHV0aW9uPjE0NDwvdGlmZjpZUmVzb2x1dGlvbj4KICAgICAgICAgPHRpZmY6WFJlc29sdXRpb24+MTQ0PC90aWZmOlhSZXNvbHV0aW9uPgogICAgICAgICA8dGlmZjpSZXNvbHV0aW9uVW5pdD4yPC90aWZmOlJlc29sdXRpb25Vbml0PgogICAgICAgICA8ZXhpZjpQaXhlbFlEaW1lbnNpb24+Mzg8L2V4aWY6UGl4ZWxZRGltZW5zaW9uPgogICAgICAgICA8ZXhpZjpVc2VyQ29tbWVudD5BQUFGQW5qYWJWTnJiQnRGRUo2OVRkc2tUZUpMMGtlYXZxN0VnWVErY05KQWc4c2pUdE8wb1luN09EdHhITHRtJiN4QTtmVjdiMTV6dnpOMDZpV3RGMmgrb3JSQUk4YXZRSDBBU0lTaEN2QVFWUWdLRUlJQVFpaUNKb0JJQzFGLzlnL3FqJiN4QTtmeENxa0ZnL0tBVjFWNmVibWQyWitlYWIyWGpXMEIzbThhd2lDVmV0V2J1dU51U2VvcmFqVythNG05aGFXaGRhJiN4QTt3TTJzYk1odHhjOVFqVGxOZ002OUdwTmRmdlVZemRPRXIzTHBoK3FhZ0cxWmpLTjM1RjNyNjlydnZhK2o4LzdkJiN4QTtlL2J1ZStEQmc0LzBEVHh4N09TcDhNUnBRcE5uTWxtV0M3ck5uR0dzMURlNDVGYjNtRi9kTjBuelRsajhLMGxHJiN4QTszWnBCSE9keVkxUHpobzJiTnJkczRSTEh2SXF2NFd2NU9sN05hM2p0NWEzYnR1L1lxZXk2cDQydjUzVzhnYnQ0JiN4QTtJMi9sVy9sMnZvTXJvVGh4cUtHYk5LaFpobVVITWxhQ0Jwbk9EQnJLMnBSazRnYU5aa2pLMUpPNlJwZ29ONUFnJiN4QTtqSXF5NGtTYlRObFd6a3djS2pxR0hTdG5helJBWjFnYlZOYUtwOHZWdmI4bjZGZFBIZW1QK05YU1JUVkxORHJvJiN4QTtVY1FHR2ZINjVZY085RDRjTHBkaGtnd05sVVhxakZVYzVudTlJYjk2dkZTdlhMWHNldlN4eDhjRkFRNnpkVFBGJiN4QTs1Uk1pZ0srL3hQTklqaEdCVnkyZExQZ09GZjNLeXNwaDErQ1JvME8zZFFIR3g0UVV6ekhxOENhK2hUZkg1T1ZJJiN4QTt3dEp5R1dxeUVvS0pMaytXUlF2RVpycG0wTm5hU002aEF2c2tTZEVKSVJheE90RkNpYlZacFYxWUVrclNzc1ZuJiN4QTtNcVZrdmRPalFES09rOC9FeGMwTVlXbm4vMmRGNDkzT0puSXMyUnN0NkdaV0lEVzFjcUpremxDWXBiQjhsaW9KJiN4QTszUmE4R0hraEVNM1dCVlpGU3hPYmFFeE1aMjF4Y0liOUorWkcrSWE1NDN3amJ4bjFxNE1DNEtvYUNMcEd4MExqJiN4QTtRbGYxczFRUWt4dzBTTW9SdWw4VTF0YlhVVzZoTFBOTmZQUG9pR1VTelJKTVI2S1ZDUE1ScjFCalR3b21CM1N0JiN4QTtPQmpFenMvSGlzYTRGcE9iN2lBNFVlWjhQdUc5cTcydHI3dWNhem5sU3V2RkdXZTZRT0Jiek9lZnYxQ244RzBpJiN4QTs1S1FoMGc2SXdadWY5QmFueXR6Zk05aWxpQTI4dnRqYnA0NE84WjNsTG5ZbVl3VjlqNWFkVmJ4S1pJQWFqQ2pEJiN4QTtTc1RXVTJsR2JOdWEvc2VvejRpNFU5TXh1Zm4yNFB4YnlNSlV6QXZWMEFpdDRJWk82SVlETUFURGNCSlVtSVpaJiN4QTtlQnFlaFl2d01yd0JiOEpiOERhOEMrL0RCM0FGUG9LUDRVdjRDcjZCYitFN1dJTHZZUmxXNFVlNEN0ZmdPdndPJiN4QTtOK0VXcWtFTlNFRzdVUTg2aUh6SWo0Sm9ESTJqMDBoSE5qcUxadEU1ZEFFOWh5NmlsOUFsOUFwNkQzMklQa1dMJiN4QTthQW45akg1QnY2RnIwaFhwRStrejZYUHBDMmxSK2xwYWtuNlNmcFd1U3pla1A2US9wVnZTWDdnSzEyQVpOK01XJiN4QTszSTQ3OEY3Y2p3L2pNTlp3R21keEhoY3d4K2Z4TS9nRi9DSytoT2Z3QW40TnY0NVg4RlY4bzl3RUNWVWU3d3o4JiN4QTtaK0diZndQOUpKNDk8L2V4aWY6VXNlckNvbW1lbnQ+CiAgICAgICAgIDxleGlmOlBpeGVsWERpbWVuc2lvbj4yNjY8L2V4aWY6UGl4ZWxYRGltZW5zaW9uPgogICAgICA8L3JkZjpEZXNjcmlwdGlvbj4KICAgPC9yZGY6UkRGPgo8L3g6eG1wbWV0YT4Kpp92+QAADJtJREFUeAHtmgvUVUUVx3mICoggCYWAIkQpGvFSlBIIhNI0jTBCVBaGVqvM8FmupHyQmEn6iSxLaimCUEE81mppLyGQkJWVomKGCIIgBAYCimhW/x/OhvGs+zjn3nPuvfDNXuv/zZyZvffM7D2PPfPdBg0CBQsECwQLFLFA4yL1obr2LNBcXWokvFt7XQs9KmCBeum3TjLIROHXwgShnxAoewv0UBNvC1uFo7NvLrSQkgXqpd/OlfGYrHuEWcJK4X/CLUKgbC2wQOqxNbg9g6YWS+cmYZ2wSnhWeEp4WnheeEl4RYDnYSFQPAtk7Td60VIgaqkJ6qZevCUwUccKpwob3fdrSgNlZ4HeUm2bBOlOIe2o4mbpfFB4RDA/W5vbXPlMpfcLXxICFbdAJfxGdI+/tghHFe9S9hwPqAmbpE2Un+6+KVsjBMrOAvOl2hatpUyQrOgJKbZ21ivfKquGDnK9Wfvto7LffwXz1bBq27OtOsCVgw790XXmevdNR690ZSFJ3wK9pBK7c837j8vznUVUIbUNmglcLW3y3UNhoMQWqITfOqlXFv1tV75j4l6mLDBC+mzi3OZ0H6r0s8JH3HdIsrHAPKllM+4h+FEc/jBfKJsaDZYm8zVp1U+p1EZWWUWV8tunNawrhLSvoiVZa5KkbPIML0lDECrFAj2d3ec6YUJN/jVqviCq+ICrSyvhYdr0s0GlrT+tftaynmr4rSbswYu4TZ6uNdGj+tEJNgiLJmzEM5QxX5D+wCpSSpd4+lekpLPSagaowd8JZ1a6YddeNfxWpaHub7ahsjsEJuUuoZEQKHsLcCqxSVg0YS2eoIwfVeCbtE79ptLlv0/UWaMHWDpS/WW+sllUmqrht0qPMWd7RBAYHSzLyREKs7AAP2iLRhPWzsPKmE9IJ1hFmenB8j7RTnbAdmyox5Zpk6TilfBbK3Xqk0Ip74OtJddPOF04RIgSbx0Dhe5CY6EgTVbtS8IaYZPgT0rKAPVjhfpGLKaFwuPCZzIaPA+XTPRoNGHNnahMNKpgApRL/JbCfE37aUUq5farFPkFbiw3liJcokwl/Hat+mb/6cBXy4U4vj9CfA8J/n/O+O3FeIFbw5FC9AB6RWXnCHnpStXMdNip1CbPUq+cRk8T6hOxw64XzB7blacsbSp0Kllb+Mf6QZpGVOG/Ra2whg7QlBMTuzDZ4yykNIaZtd8uVic5INj8WghsEoxxqlCI2PDh3SxcJiB7hsAPJZG/QXhM2CFcJHQQNgjUbRNi0TxxIQBOiSVx8DK1cXYwe7yp7yYpD/fj0lcomrDm+KUsk8b68rry5SyIppLf4+mrU/5Ap0UaAPbh16acmllS1n47Xp3fLdztDWKJ8oxvtVcWzTJu+Ige+K+ZT5P0YfOHlJ87QPYbKat7r7TI35dVjwAhC5OpvhOTzgzIz5nTpjlSyEZBGFuMZonB+kJ6azGBAvWDIrqGFeA9UKq6qKOciNgmjYir0Liz9hsbBGPhB3FQS8E29hV7S3L/Ga1ixj80R/V3XR31i7z6H3nlhXTvE2ntCTy7r7R+Z7hq9BeyiK66S2+caMI8cJIy0ajiKKtMmB5M7xP+0M/Shy0o7uDN/cqU8ln77VD1k4hxitffMcqzwME9Xnk0+4wKlkcL3fc0paZjtMfDVWWiwHsIj5tFyT9lphfl3s8wStm1wtX7i0IuhgVmiyduNGHqfqGMOZv0FqtImC729MQ6RRLqz8XOom1XATAfzUarlL9QaCSkRVn7jWsHB0Jvr8MLlbcxDfHK/ezh+uDhk80yFz2vQtPRPhdD3LKrPEXXxBUSH86gA+zggeJZIOmpZFqJKthczOGcPEmjiqaSsVMXPXVCXOKN5mdC57gCjg/+twXrd6XTF9Q20WG5VCm/HeJ1lI3DfM7TQKFNL98YeW8zHazXvOQ3nI+pp1fxdy9fLMup9gmB8CVQPAvc6Nhuise+j+s55TjRLnAlRyodJ4x333GS08VEeGu0yDIx0i+K51KBe20S2ixmHsrbJhEqg3eAJ7tLeQ4xTulyqVJ+443QaLQyDd3Hg0pZ8Pko3xj7S8B0LMonHLec+43t9NxbAmVjgY9JLc6eW6L6k528+Yp/27ZKoIvNyWTpRxJfLxV/kkMkQbdSY71Dmhgfi+0+4UNCGlQNv7G41wrmry4lDmSyp+OiEnXsFeN+845Ttq4cRUG2qAV+KQ4WaJz/dORT9itV2OQhZfHHpT+J0WSTvE9wZ0aOK2qt0p3qGH3kX9lnp9zJavhtkBsPY1pSxnj894kOZejZ+6pvk2dBTEXsbucLrWPyx2Vr7/R+TmnHPEJ9VX6e4L/Ssvv2EoYJxwm1SBYNlBpN2JjsdDOfxY0q7MHL5OpMYZGUq+uTAqd0Wid0kSYTV+N3xrVTGJBYurBAtfw2Td0yX431unir8j/1vgtlj1Gl6Vidh3Gwyv+Rp+59xZfpy5QVO524384TNgg8EjF5cFI51FjC1wvrBR69lgiLBHT/RGATgEh5+V8rvCbwmHeGwL15o8BDzYsCY/m+YHLKlkxsXPk2rKRK6Xu50YS1OVsZ85mN1+rypZ+KyMT12w1O7pF8iqtczgZIJIwdLs+gL9XwW1ONg/cVxkSExHsUxKa9RbiLD49YQ18QWMuHeeVjlLd58oBX7meX6eNvfkG+/BRVmLLP52Ny5Szcp4RWwigBuT8LpVJnCSKPnunCEQLE3RmDUN5dgM4StgtEEl8VqNstbBWGClAjgTCRuuuEcug2CbNZoYt7Xjl0koTR84zw4RRgJyg6wTYBnxSim1Rp/HHeJ5iUyJgNRhZSXsW6q9U243pcaJhyP6rlt35uTIxrpjcmHrIpszVhVb9x5dT58/73Xjl2ilJ/FSDz5WhFrm9bqAh0ysXgyroqZdL0cd91SpHBQaVQMwmtFNARXYhjXPm7So8ToPnC1L259363gdwbwqmuzJIRylC31ApKSNnB2YTQA/YITYRSaZYETVdW6fcKdI4T52mvDysK8FLVU1guWF93KM8pV4tEJEk/B2bQuWr57Rw3JsbFWoCIFP4psPh9aqcPNn7z1VWucqBXRh1vOD4RKROJ4eeiGywn8C4BRZuEQvR1VT7hGA5XSviP3LWuLGlCdII8i711RJiIYo5Am0ZEDgPdB5sGstPct5/YLvmOClv4FQnyzcXLNYg2wKsCi60U6iYhNjzTlVVKVNHS6+C5yv9QmCIQWvrt4jvqiJoM8M0W1go+L/mfC7VIPdQp+rdBYC6nSdXyG2NgPdicuVh51sOjwr+EYwWf8LlFfeuUbysQkWwU/ircLWCjNUIbATpbeFFYKbQXitIJ4kAJYJIUIk7UZo7hQqXIsBg/6MqSJDyKWbv3xhS0RcCEYFEgf2kO2a+5OgxNZFAqfUWCGHu1cEGpSiR3jWBjzTLlVDnP6ycTK432iKz6enprKXu5G+OkDDpVLb/ZUL6hDD5lHrMRsEn0F3LRN1XItRw+5ix+XyiwNokEfyxQ95bAIUH9H4SjhVhkCx5BjB6XHhMjMnPjCkT4hjt5dHAPTEKExciBLjkEZ7i653LUhaKDywKE3YTmpAcjHa9BsUaJDlsWGSAHaB/hEuFkIXqd4G1shIA+6hPRneK2RdcxpiSLk50OOUIYiPAlyel9h/iR3yYkpXESQHZ9DkGinq2ufmqO+lAULBAsUMQC3VV/n8DmYLvNk8qz6BYLcWmCGJF5WWAXY3ESno8RosQGYtcVv+4KfaBjlV+YI3+syjpEyu194qFIOZ8jBfS+IeSKNlQcKFggWCCfBfhX16sCiwicL7QRLDIYpXxc4pUUHXYv5C7/psB9yKfv6AP9nPAseJ+66cP6ki+SGSIeIo7rPEE2JsqQneyVkz1G4EGWum8JgYIFggUSWmCw+G1hkg4UWMjklwoswLi0WIzIsbmcImwQxgtR+osKrE02kyjdqwLqWfB++zyw1gk8vkwR2OSM/PcJNqferoKogw2Mh5+bBV+fPgMFCwQLxLFAVzHZomUR9hNeFwjRqUtCg8T8bwH53cJdQi7icXSXQLv352JQGRvMFmGzsEzgxRa9c4S+QpTGqQB98LHRsVm8INAOG8VQIVCwQLBAGRZgUbKgWFwsNv7dcqZQCjWWUB+hRQzhieK5vQhfZ9WfJrQtwjdf9fR9huPj/YMNJclDqhMNSbBAsEA+CxymiiECUUHTfEwpl/9W+i5JQSfXCXufyHWVSaGJoCJYIFigGhbgDYEfgrRKoXF0EU2AE1PQF1QECwQL1IAFuEasEb5dZl/4V+5w4VHBNgr+FdtLCBQsECyQkgX+D5ppf0L3GmmtAAAAAElFTkSuQmCC;" parent="1" vertex="1">
          <mxGeometry x="10" y="340" width="80" height="11.43" as="geometry" />
        </mxCell>
        <mxCell id="6rgcdNTC2bKChod3cp9X-26" value="" style="shape=image;verticalLabelPosition=bottom;labelBackgroundColor=default;verticalAlign=top;aspect=fixed;imageAspect=0;image=data:image/png,iVBORw0KGgoAAAANSUhEUgAAAQoAAAAmCAYAAAA80tUwAAABW2lDQ1BJQ0MgUHJvZmlsZQAAKJF1kL1Lw1AUxU9qJaKBKjiJQsDFIUpptepYq6hQMNQP/AAhTdtU6MfrS6wIbrq5+A/o5P+gOOmsmyII7urkIBZBS7wvVdsqXrjcH4fzLvcdwNdmMJbzA8gXHJ6YnlCXV1ZV+QEdkCCjByOGabOorsfJgu/ZXJVb8lJdD4pdkd3ya7Hr6OZZfXq83Ff2/vqbqj2Vtk2aH9RBk3EHkDRifcthgneIuzkdRXwg2KrxseBkjU89z0IiRnxF3GlmjRTxPbGWbNCtBs7nNs2vG8T1SrqwOC/2UPdCxwziUBHCKCKYwhiW/vEPe/4YimDYBscGLGTh0NsoKQw5pIlnUYCJIWjeziB1WOT8O7+6xuaA8TLgM+ra+iRw0g8ESnVtgP4TyAAXa8zgxk+qUsVvZ8KhGiscaH1z3Zc+QD4Dqtx13w9dt0oZttwB56VPyc5iK2/hwVsAAAXiZVhJZk1NACoAAAAIAAQBGgAFAAAAAQAAAD4BGwAFAAAAAQAAAEYBKAADAAAAAQACAACHaQAEAAAAAQAAAE4AAAAAAAAAkAAAAAEAAACQAAAAAQADkoYABwAABWkAAAB4oAIABAAAAAEAAAEKoAMABAAAAAEAAAAmAAAAAEFTQ0lJAAAAQUFBRkFuamFiVk5yYkJ0RkVKNjlUZHNrVGVKTDBrZWF2cTdFZ1lRK2NOSkFnOHNqVHRPMG9ZbjdPRHR4SEx0bQpmVjdiMTV6dnpOMDZpV3RGMmgrb3JSQUk4YXZRSDBBU0lTaEN2QVFWUWdLRUlJQVFpaUNKb0JJQzFGLzlnL3FqCmZ4Q3FrRmcvS0FWMVY2ZWJtZDJaK2VhYjJYalcwQjNtOGF3aUNWZXRXYnV1TnVTZW9yYWpXK2E0bTloYVdoZGEKd00yc2JNaHR4YzlRalRsTmdNNjlHcE5kZnZVWXpkT0VyM0xwaCtxYWdHMVpqS04zNUYzcjY5cnZ2YStqOC83ZAplL2J1ZStEQmc0LzBEVHh4N09TcDhNUnBRcE5uTWxtV0M3ck5uR0dzMURlNDVGYjNtRi9kTjBuelRsajhLMGxHCjNacEJIT2R5WTFQemhvMmJOcmRzNFJMSHZJcXY0V3Y1T2w3TmEzanQ1YTNidHUvWXFleTZwNDJ2NTNXOGdidDQKSTIvbFcvbDJ2b01yb1RoeHFLR2JOS2haaG1VSE1sYUNCcG5PREJySzJwUms0Z2FOWmtqSzFKTzZScGdvTjVBZwpqSXF5NGtTYlRObFd6a3djS2pxR0hTdG5helJBWjFnYlZOYUtwOHZWdmI4bjZGZFBIZW1QK05YU1JUVkxORHJvClVjUUdHZkg2NVljTzlENGNMcGRoa2d3TmxVWHFqRlVjNW51OUliOTZ2RlN2WExYc2V2U3h4OGNGQVE2emRUUEYKNVJNaWdLKy94UE5JamhHQlZ5MmRMUGdPRmYzS3lzcGgxK0NSbzBPM2RRSEd4NFFVenpIcThDYStoVGZINU9WSQp3dEp5R1dxeUVvS0pMaytXUlF2RVpycG0wTm5hU002aEF2c2tTZEVKSVJheE90RkNpYlZacFYxWUVrclNzc1ZuCk1xVmt2ZE9qUURLT2s4L0V4YzBNWVdubi8yZEY0OTNPSm5JczJSc3Q2R1pXSURXMWNxSmt6bENZcGJCOGxpb0oKM1JhOEdIa2hFTTNXQlZaRlN4T2JhRXhNWjIxeGNJYjlKK1pHK0lhNTQzd2pieG4xcTRNQzRLb2FDTHBHeDBMagpRbGYxczFRUWt4dzBTTW9SdWw4VTF0YlhVVzZoTFBOTmZQUG9pR1VTelJKTVI2S1ZDUE1ScjFCalR3b21CM1N0Ck9CakV6cy9IaXNhNEZwT2I3aUE0VWVaOFB1RzlxNzJ0cjd1Y2F6bmxTdXZGR1dlNlFPQmJ6T2VmdjFDbjhHMGkKNUtRaDBnNkl3WnVmOUJhbnl0emZNOWlsaUEyOHZ0amJwNDRPOFozbExuWW1Zd1Y5ajVhZFZieEtaSUFhakNqRApTc1RXVTJsR2JOdWEvc2VvejRpNFU5TXh1Zm4yNFB4YnlNSlV6QXZWMEFpdDRJWk82SVlETUFURGNCSlVtSVpaCmVCcWVoWXZ3TXJ3QmI4SmI4RGE4QysvREIzQUZQb0tQNFV2NENyNkJiK0U3V0lMdllSbFc0VWU0Q3RmZ092d08KTitFV3FrRU5TRUc3VVE4NmlIeklqNEpvREkyajAwaEhOanFMWnRFNWRBRTloeTZpbDlBbDlBcDZEMzJJUGtXTAphQW45akg1QnY2RnIwaFhwRStrejZYUHBDMmxSK2xwYWtuNlNmcFd1U3pla1A2US9wVnZTWDdnSzEyQVpOK01XCjNJNDc4Rjdjancvak1OWndHbWR4SGhjd3grZnhNL2dGL0NLK2hPZndBbjROdjQ1WDhGVjhvOXdFQ1ZVZTd3ejgKWitHYmZ3UDlKSjQ5AMXbmosAAAAJcEhZcwAAFiUAABYlAUlSJPAAAAhRaVRYdFhNTDpjb20uYWRvYmUueG1wAAAAAAA8eDp4bXBtZXRhIHhtbG5zOng9ImFkb2JlOm5zOm1ldGEvIiB4OnhtcHRrPSJYTVAgQ29yZSA2LjAuMCI+CiAgIDxyZGY6UkRGIHhtbG5zOnJkZj0iaHR0cDovL3d3dy53My5vcmcvMTk5OS8wMi8yMi1yZGYtc3ludGF4LW5zIyI+CiAgICAgIDxyZGY6RGVzY3JpcHRpb24gcmRmOmFib3V0PSIiCiAgICAgICAgICAgIHhtbG5zOnRpZmY9Imh0dHA6Ly9ucy5hZG9iZS5jb20vdGlmZi8xLjAvIgogICAgICAgICAgICB4bWxuczpleGlmPSJodHRwOi8vbnMuYWRvYmUuY29tL2V4aWYvMS4wLyI+CiAgICAgICAgIDx0aWZmOllSZXNvbHV0aW9uPjE0NDwvdGlmZjpZUmVzb2x1dGlvbj4KICAgICAgICAgPHRpZmY6WFJlc29sdXRpb24+MTQ0PC90aWZmOlhSZXNvbHV0aW9uPgogICAgICAgICA8dGlmZjpSZXNvbHV0aW9uVW5pdD4yPC90aWZmOlJlc29sdXRpb25Vbml0PgogICAgICAgICA8ZXhpZjpQaXhlbFlEaW1lbnNpb24+Mzg8L2V4aWY6UGl4ZWxZRGltZW5zaW9uPgogICAgICAgICA8ZXhpZjpVc2VyQ29tbWVudD5BQUFGQW5qYWJWTnJiQnRGRUo2OVRkc2tUZUpMMGtlYXZxN0VnWVErY05KQWc4c2pUdE8wb1luN09EdHhITHRtJiN4QTtmVjdiMTV6dnpOMDZpV3RGMmgrb3JSQUk4YXZRSDBBU0lTaEN2QVFWUWdLRUlJQVFpaUNKb0JJQzFGLzlnL3FqJiN4QTtmeENxa0ZnL0tBVjFWNmVibWQyWitlYWIyWGpXMEIzbThhd2lDVmV0V2J1dU51U2VvcmFqVythNG05aGFXaGRhJiN4QTt3TTJzYk1odHhjOVFqVGxOZ002OUdwTmRmdlVZemRPRXIzTHBoK3FhZ0cxWmpLTjM1RjNyNjlydnZhK2o4LzdkJiN4QTtlL2J1ZStEQmc0LzBEVHh4N09TcDhNUnBRcE5uTWxtV0M3ck5uR0dzMURlNDVGYjNtRi9kTjBuelRsajhLMGxHJiN4QTszWnBCSE9keVkxUHpobzJiTnJkczRSTEh2SXF2NFd2NU9sN05hM2p0NWEzYnR1L1lxZXk2cDQydjUzVzhnYnQ0JiN4QTtJMi9sVy9sMnZvTXJvVGh4cUtHYk5LaFpobVVITWxhQ0Jwbk9EQnJLMnBSazRnYU5aa2pLMUpPNlJwZ29ONUFnJiN4QTtqSXF5NGtTYlRObFd6a3djS2pxR0hTdG5helJBWjFnYlZOYUtwOHZWdmI4bjZGZFBIZW1QK05YU1JUVkxORHJvJiN4QTtVY1FHR2ZINjVZY085RDRjTHBkaGtnd05sVVhxakZVYzVudTlJYjk2dkZTdlhMWHNldlN4eDhjRkFRNnpkVFBGJiN4QTs1Uk1pZ0srL3hQTklqaEdCVnkyZExQZ09GZjNLeXNwaDErQ1JvME8zZFFIR3g0UVV6ekhxOENhK2hUZkg1T1ZJJiN4QTt3dEp5R1dxeUVvS0pMaytXUlF2RVpycG0wTm5hU002aEF2c2tTZEVKSVJheE90RkNpYlZacFYxWUVrclNzc1ZuJiN4QTtNcVZrdmRPalFES09rOC9FeGMwTVlXbm4vMmRGNDkzT0puSXMyUnN0NkdaV0lEVzFjcUpremxDWXBiQjhsaW9KJiN4QTszUmE4R0hraEVNM1dCVlpGU3hPYmFFeE1aMjF4Y0liOUorWkcrSWE1NDN3amJ4bjFxNE1DNEtvYUNMcEd4MExqJiN4QTtRbGYxczFRUWt4dzBTTW9SdWw4VTF0YlhVVzZoTFBOTmZQUG9pR1VTelJKTVI2S1ZDUE1ScjFCalR3b21CM1N0JiN4QTtPQmpFenMvSGlzYTRGcE9iN2lBNFVlWjhQdUc5cTcydHI3dWNhem5sU3V2RkdXZTZRT0Jiek9lZnYxQ244RzBpJiN4QTs1S1FoMGc2SXdadWY5QmFueXR6Zk05aWxpQTI4dnRqYnA0NE84WjNsTG5ZbVl3VjlqNWFkVmJ4S1pJQWFqQ2pEJiN4QTtTc1RXVTJsR2JOdWEvc2VvejRpNFU5TXh1Zm4yNFB4YnlNSlV6QXZWMEFpdDRJWk82SVlETUFURGNCSlVtSVpaJiN4QTtlQnFlaFl2d01yd0JiOEpiOERhOEMrL0RCM0FGUG9LUDRVdjRDcjZCYitFN1dJTHZZUmxXNFVlNEN0ZmdPdndPJiN4QTtOK0VXcWtFTlNFRzdVUTg2aUh6SWo0Sm9ESTJqMDBoSE5qcUxadEU1ZEFFOWh5NmlsOUFsOUFwNkQzMklQa1dMJiN4QTthQW45akg1QnY2RnIwaFhwRStrejZYUHBDMmxSK2xwYWtuNlNmcFd1U3pla1A2US9wVnZTWDdnSzEyQVpOK01XJiN4QTszSTQ3OEY3Y2p3L2pNTlp3R21keEhoY3d4K2Z4TS9nRi9DSytoT2Z3QW40TnY0NVg4RlY4bzl3RUNWVWU3d3o4JiN4QTtaK0diZndQOUpKNDk8L2V4aWY6VXNlckNvbW1lbnQ+CiAgICAgICAgIDxleGlmOlBpeGVsWERpbWVuc2lvbj4yNjY8L2V4aWY6UGl4ZWxYRGltZW5zaW9uPgogICAgICA8L3JkZjpEZXNjcmlwdGlvbj4KICAgPC9yZGY6UkRGPgo8L3g6eG1wbWV0YT4Kpp92+QAADJtJREFUeAHtmgvUVUUVx3mICoggCYWAIkQpGvFSlBIIhNI0jTBCVBaGVqvM8FmupHyQmEn6iSxLaimCUEE81mppLyGQkJWVomKGCIIgBAYCimhW/x/OhvGs+zjn3nPuvfDNXuv/zZyZvffM7D2PPfPdBg0CBQsECwQLFLFA4yL1obr2LNBcXWokvFt7XQs9KmCBeum3TjLIROHXwgShnxAoewv0UBNvC1uFo7NvLrSQkgXqpd/OlfGYrHuEWcJK4X/CLUKgbC2wQOqxNbg9g6YWS+cmYZ2wSnhWeEp4WnheeEl4RYDnYSFQPAtk7Td60VIgaqkJ6qZevCUwUccKpwob3fdrSgNlZ4HeUm2bBOlOIe2o4mbpfFB4RDA/W5vbXPlMpfcLXxICFbdAJfxGdI+/tghHFe9S9hwPqAmbpE2Un+6+KVsjBMrOAvOl2hatpUyQrOgJKbZ21ivfKquGDnK9Wfvto7LffwXz1bBq27OtOsCVgw790XXmevdNR690ZSFJ3wK9pBK7c837j8vznUVUIbUNmglcLW3y3UNhoMQWqITfOqlXFv1tV75j4l6mLDBC+mzi3OZ0H6r0s8JH3HdIsrHAPKllM+4h+FEc/jBfKJsaDZYm8zVp1U+p1EZWWUWV8tunNawrhLSvoiVZa5KkbPIML0lDECrFAj2d3ec6YUJN/jVqviCq+ICrSyvhYdr0s0GlrT+tftaynmr4rSbswYu4TZ6uNdGj+tEJNgiLJmzEM5QxX5D+wCpSSpd4+lekpLPSagaowd8JZ1a6YddeNfxWpaHub7ahsjsEJuUuoZEQKHsLcCqxSVg0YS2eoIwfVeCbtE79ptLlv0/UWaMHWDpS/WW+sllUmqrht0qPMWd7RBAYHSzLyREKs7AAP2iLRhPWzsPKmE9IJ1hFmenB8j7RTnbAdmyox5Zpk6TilfBbK3Xqk0Ip74OtJddPOF04RIgSbx0Dhe5CY6EgTVbtS8IaYZPgT0rKAPVjhfpGLKaFwuPCZzIaPA+XTPRoNGHNnahMNKpgApRL/JbCfE37aUUq5farFPkFbiw3liJcokwl/Hat+mb/6cBXy4U4vj9CfA8J/n/O+O3FeIFbw5FC9AB6RWXnCHnpStXMdNip1CbPUq+cRk8T6hOxw64XzB7blacsbSp0Kllb+Mf6QZpGVOG/Ra2whg7QlBMTuzDZ4yykNIaZtd8uVic5INj8WghsEoxxqlCI2PDh3SxcJiB7hsAPJZG/QXhM2CFcJHQQNgjUbRNi0TxxIQBOiSVx8DK1cXYwe7yp7yYpD/fj0lcomrDm+KUsk8b68rry5SyIppLf4+mrU/5Ap0UaAPbh16acmllS1n47Xp3fLdztDWKJ8oxvtVcWzTJu+Ige+K+ZT5P0YfOHlJ87QPYbKat7r7TI35dVjwAhC5OpvhOTzgzIz5nTpjlSyEZBGFuMZonB+kJ6azGBAvWDIrqGFeA9UKq6qKOciNgmjYir0Liz9hsbBGPhB3FQS8E29hV7S3L/Ga1ixj80R/V3XR31i7z6H3nlhXTvE2ntCTy7r7R+Z7hq9BeyiK66S2+caMI8cJIy0ajiKKtMmB5M7xP+0M/Shy0o7uDN/cqU8ln77VD1k4hxitffMcqzwME9Xnk0+4wKlkcL3fc0paZjtMfDVWWiwHsIj5tFyT9lphfl3s8wStm1wtX7i0IuhgVmiyduNGHqfqGMOZv0FqtImC729MQ6RRLqz8XOom1XATAfzUarlL9QaCSkRVn7jWsHB0Jvr8MLlbcxDfHK/ezh+uDhk80yFz2vQtPRPhdD3LKrPEXXxBUSH86gA+zggeJZIOmpZFqJKthczOGcPEmjiqaSsVMXPXVCXOKN5mdC57gCjg/+twXrd6XTF9Q20WG5VCm/HeJ1lI3DfM7TQKFNL98YeW8zHazXvOQ3nI+pp1fxdy9fLMup9gmB8CVQPAvc6Nhuise+j+s55TjRLnAlRyodJ4x333GS08VEeGu0yDIx0i+K51KBe20S2ixmHsrbJhEqg3eAJ7tLeQ4xTulyqVJ+443QaLQyDd3Hg0pZ8Pko3xj7S8B0LMonHLec+43t9NxbAmVjgY9JLc6eW6L6k528+Yp/27ZKoIvNyWTpRxJfLxV/kkMkQbdSY71Dmhgfi+0+4UNCGlQNv7G41wrmry4lDmSyp+OiEnXsFeN+845Ttq4cRUG2qAV+KQ4WaJz/dORT9itV2OQhZfHHpT+J0WSTvE9wZ0aOK2qt0p3qGH3kX9lnp9zJavhtkBsPY1pSxnj894kOZejZ+6pvk2dBTEXsbucLrWPyx2Vr7/R+TmnHPEJ9VX6e4L/Ssvv2EoYJxwm1SBYNlBpN2JjsdDOfxY0q7MHL5OpMYZGUq+uTAqd0Wid0kSYTV+N3xrVTGJBYurBAtfw2Td0yX431unir8j/1vgtlj1Gl6Vidh3Gwyv+Rp+59xZfpy5QVO524384TNgg8EjF5cFI51FjC1wvrBR69lgiLBHT/RGATgEh5+V8rvCbwmHeGwL15o8BDzYsCY/m+YHLKlkxsXPk2rKRK6Xu50YS1OVsZ85mN1+rypZ+KyMT12w1O7pF8iqtczgZIJIwdLs+gL9XwW1ONg/cVxkSExHsUxKa9RbiLD49YQ18QWMuHeeVjlLd58oBX7meX6eNvfkG+/BRVmLLP52Ny5Szcp4RWwigBuT8LpVJnCSKPnunCEQLE3RmDUN5dgM4StgtEEl8VqNstbBWGClAjgTCRuuuEcug2CbNZoYt7Xjl0koTR84zw4RRgJyg6wTYBnxSim1Rp/HHeJ5iUyJgNRhZSXsW6q9U243pcaJhyP6rlt35uTIxrpjcmHrIpszVhVb9x5dT58/73Xjl2ilJ/FSDz5WhFrm9bqAh0ysXgyroqZdL0cd91SpHBQaVQMwmtFNARXYhjXPm7So8ToPnC1L259363gdwbwqmuzJIRylC31ApKSNnB2YTQA/YITYRSaZYETVdW6fcKdI4T52mvDysK8FLVU1guWF93KM8pV4tEJEk/B2bQuWr57Rw3JsbFWoCIFP4psPh9aqcPNn7z1VWucqBXRh1vOD4RKROJ4eeiGywn8C4BRZuEQvR1VT7hGA5XSviP3LWuLGlCdII8i711RJiIYo5Am0ZEDgPdB5sGstPct5/YLvmOClv4FQnyzcXLNYg2wKsCi60U6iYhNjzTlVVKVNHS6+C5yv9QmCIQWvrt4jvqiJoM8M0W1go+L/mfC7VIPdQp+rdBYC6nSdXyG2NgPdicuVh51sOjwr+EYwWf8LlFfeuUbysQkWwU/ircLWCjNUIbATpbeFFYKbQXitIJ4kAJYJIUIk7UZo7hQqXIsBg/6MqSJDyKWbv3xhS0RcCEYFEgf2kO2a+5OgxNZFAqfUWCGHu1cEGpSiR3jWBjzTLlVDnP6ycTK432iKz6enprKXu5G+OkDDpVLb/ZUL6hDD5lHrMRsEn0F3LRN1XItRw+5ix+XyiwNokEfyxQ95bAIUH9H4SjhVhkCx5BjB6XHhMjMnPjCkT4hjt5dHAPTEKExciBLjkEZ7i653LUhaKDywKE3YTmpAcjHa9BsUaJDlsWGSAHaB/hEuFkIXqd4G1shIA+6hPRneK2RdcxpiSLk50OOUIYiPAlyel9h/iR3yYkpXESQHZ9DkGinq2ufmqO+lAULBAsUMQC3VV/n8DmYLvNk8qz6BYLcWmCGJF5WWAXY3ESno8RosQGYtcVv+4KfaBjlV+YI3+syjpEyu194qFIOZ8jBfS+IeSKNlQcKFggWCCfBfhX16sCiwicL7QRLDIYpXxc4pUUHXYv5C7/psB9yKfv6AP9nPAseJ+66cP6ki+SGSIeIo7rPEE2JsqQneyVkz1G4EGWum8JgYIFggUSWmCw+G1hkg4UWMjklwoswLi0WIzIsbmcImwQxgtR+osKrE02kyjdqwLqWfB++zyw1gk8vkwR2OSM/PcJNqferoKogw2Mh5+bBV+fPgMFCwQLxLFAVzHZomUR9hNeFwjRqUtCg8T8bwH53cJdQi7icXSXQLv352JQGRvMFmGzsEzgxRa9c4S+QpTGqQB98LHRsVm8INAOG8VQIVCwQLBAGRZgUbKgWFwsNv7dcqZQCjWWUB+hRQzhieK5vQhfZ9WfJrQtwjdf9fR9huPj/YMNJclDqhMNSbBAsEA+CxymiiECUUHTfEwpl/9W+i5JQSfXCXufyHWVSaGJoCJYIFigGhbgDYEfgrRKoXF0EU2AE1PQF1QECwQL1IAFuEasEb5dZl/4V+5w4VHBNgr+FdtLCBQsECyQkgX+D5ppf0L3GmmtAAAAAElFTkSuQmCC;" parent="1" vertex="1">
          <mxGeometry x="200" y="351.43" width="80" height="11.43" as="geometry" />
        </mxCell>
        <mxCell id="6rgcdNTC2bKChod3cp9X-27" value="" style="shape=image;verticalLabelPosition=bottom;labelBackgroundColor=default;verticalAlign=top;aspect=fixed;imageAspect=0;image=data:image/png,iVBORw0KGgoAAAANSUhEUgAAAQoAAAAmCAYAAAA80tUwAAABW2lDQ1BJQ0MgUHJvZmlsZQAAKJF1kL1Lw1AUxU9qJaKBKjiJQsDFIUpptepYq6hQMNQP/AAhTdtU6MfrS6wIbrq5+A/o5P+gOOmsmyII7urkIBZBS7wvVdsqXrjcH4fzLvcdwNdmMJbzA8gXHJ6YnlCXV1ZV+QEdkCCjByOGabOorsfJgu/ZXJVb8lJdD4pdkd3ya7Hr6OZZfXq83Ff2/vqbqj2Vtk2aH9RBk3EHkDRifcthgneIuzkdRXwg2KrxseBkjU89z0IiRnxF3GlmjRTxPbGWbNCtBs7nNs2vG8T1SrqwOC/2UPdCxwziUBHCKCKYwhiW/vEPe/4YimDYBscGLGTh0NsoKQw5pIlnUYCJIWjeziB1WOT8O7+6xuaA8TLgM+ra+iRw0g8ESnVtgP4TyAAXa8zgxk+qUsVvZ8KhGiscaH1z3Zc+QD4Dqtx13w9dt0oZttwB56VPyc5iK2/hwVsAAAXiZVhJZk1NACoAAAAIAAQBGgAFAAAAAQAAAD4BGwAFAAAAAQAAAEYBKAADAAAAAQACAACHaQAEAAAAAQAAAE4AAAAAAAAAkAAAAAEAAACQAAAAAQADkoYABwAABWkAAAB4oAIABAAAAAEAAAEKoAMABAAAAAEAAAAmAAAAAEFTQ0lJAAAAQUFBRkFuamFiVk5yYkJ0RkVKNjlUZHNrVGVKTDBrZWF2cTdFZ1lRK2NOSkFnOHNqVHRPMG9ZbjdPRHR4SEx0bQpmVjdiMTV6dnpOMDZpV3RGMmgrb3JSQUk4YXZRSDBBU0lTaEN2QVFWUWdLRUlJQVFpaUNKb0JJQzFGLzlnL3FqCmZ4Q3FrRmcvS0FWMVY2ZWJtZDJaK2VhYjJYalcwQjNtOGF3aUNWZXRXYnV1TnVTZW9yYWpXK2E0bTloYVdoZGEKd00yc2JNaHR4YzlRalRsTmdNNjlHcE5kZnZVWXpkT0VyM0xwaCtxYWdHMVpqS04zNUYzcjY5cnZ2YStqOC83ZAplL2J1ZStEQmc0LzBEVHh4N09TcDhNUnBRcE5uTWxtV0M3ck5uR0dzMURlNDVGYjNtRi9kTjBuelRsajhLMGxHCjNacEJIT2R5WTFQemhvMmJOcmRzNFJMSHZJcXY0V3Y1T2w3TmEzanQ1YTNidHUvWXFleTZwNDJ2NTNXOGdidDQKSTIvbFcvbDJ2b01yb1RoeHFLR2JOS2haaG1VSE1sYUNCcG5PREJySzJwUms0Z2FOWmtqSzFKTzZScGdvTjVBZwpqSXF5NGtTYlRObFd6a3djS2pxR0hTdG5helJBWjFnYlZOYUtwOHZWdmI4bjZGZFBIZW1QK05YU1JUVkxORHJvClVjUUdHZkg2NVljTzlENGNMcGRoa2d3TmxVWHFqRlVjNW51OUliOTZ2RlN2WExYc2V2U3h4OGNGQVE2emRUUEYKNVJNaWdLKy94UE5JamhHQlZ5MmRMUGdPRmYzS3lzcGgxK0NSbzBPM2RRSEd4NFFVenpIcThDYStoVGZINU9WSQp3dEp5R1dxeUVvS0pMaytXUlF2RVpycG0wTm5hU002aEF2c2tTZEVKSVJheE90RkNpYlZacFYxWUVrclNzc1ZuCk1xVmt2ZE9qUURLT2s4L0V4YzBNWVdubi8yZEY0OTNPSm5JczJSc3Q2R1pXSURXMWNxSmt6bENZcGJCOGxpb0oKM1JhOEdIa2hFTTNXQlZaRlN4T2JhRXhNWjIxeGNJYjlKK1pHK0lhNTQzd2pieG4xcTRNQzRLb2FDTHBHeDBMagpRbGYxczFRUWt4dzBTTW9SdWw4VTF0YlhVVzZoTFBOTmZQUG9pR1VTelJKTVI2S1ZDUE1ScjFCalR3b21CM1N0Ck9CakV6cy9IaXNhNEZwT2I3aUE0VWVaOFB1RzlxNzJ0cjd1Y2F6bmxTdXZGR1dlNlFPQmJ6T2VmdjFDbjhHMGkKNUtRaDBnNkl3WnVmOUJhbnl0emZNOWlsaUEyOHZ0amJwNDRPOFozbExuWW1Zd1Y5ajVhZFZieEtaSUFhakNqRApTc1RXVTJsR2JOdWEvc2VvejRpNFU5TXh1Zm4yNFB4YnlNSlV6QXZWMEFpdDRJWk82SVlETUFURGNCSlVtSVpaCmVCcWVoWXZ3TXJ3QmI4SmI4RGE4QysvREIzQUZQb0tQNFV2NENyNkJiK0U3V0lMdllSbFc0VWU0Q3RmZ092d08KTitFV3FrRU5TRUc3VVE4NmlIeklqNEpvREkyajAwaEhOanFMWnRFNWRBRTloeTZpbDlBbDlBcDZEMzJJUGtXTAphQW45akg1QnY2RnIwaFhwRStrejZYUHBDMmxSK2xwYWtuNlNmcFd1U3pla1A2US9wVnZTWDdnSzEyQVpOK01XCjNJNDc4Rjdjancvak1OWndHbWR4SGhjd3grZnhNL2dGL0NLK2hPZndBbjROdjQ1WDhGVjhvOXdFQ1ZVZTd3ejgKWitHYmZ3UDlKSjQ5AMXbmosAAAAJcEhZcwAAFiUAABYlAUlSJPAAAAhRaVRYdFhNTDpjb20uYWRvYmUueG1wAAAAAAA8eDp4bXBtZXRhIHhtbG5zOng9ImFkb2JlOm5zOm1ldGEvIiB4OnhtcHRrPSJYTVAgQ29yZSA2LjAuMCI+CiAgIDxyZGY6UkRGIHhtbG5zOnJkZj0iaHR0cDovL3d3dy53My5vcmcvMTk5OS8wMi8yMi1yZGYtc3ludGF4LW5zIyI+CiAgICAgIDxyZGY6RGVzY3JpcHRpb24gcmRmOmFib3V0PSIiCiAgICAgICAgICAgIHhtbG5zOnRpZmY9Imh0dHA6Ly9ucy5hZG9iZS5jb20vdGlmZi8xLjAvIgogICAgICAgICAgICB4bWxuczpleGlmPSJodHRwOi8vbnMuYWRvYmUuY29tL2V4aWYvMS4wLyI+CiAgICAgICAgIDx0aWZmOllSZXNvbHV0aW9uPjE0NDwvdGlmZjpZUmVzb2x1dGlvbj4KICAgICAgICAgPHRpZmY6WFJlc29sdXRpb24+MTQ0PC90aWZmOlhSZXNvbHV0aW9uPgogICAgICAgICA8dGlmZjpSZXNvbHV0aW9uVW5pdD4yPC90aWZmOlJlc29sdXRpb25Vbml0PgogICAgICAgICA8ZXhpZjpQaXhlbFlEaW1lbnNpb24+Mzg8L2V4aWY6UGl4ZWxZRGltZW5zaW9uPgogICAgICAgICA8ZXhpZjpVc2VyQ29tbWVudD5BQUFGQW5qYWJWTnJiQnRGRUo2OVRkc2tUZUpMMGtlYXZxN0VnWVErY05KQWc4c2pUdE8wb1luN09EdHhITHRtJiN4QTtmVjdiMTV6dnpOMDZpV3RGMmgrb3JSQUk4YXZRSDBBU0lTaEN2QVFWUWdLRUlJQVFpaUNKb0JJQzFGLzlnL3FqJiN4QTtmeENxa0ZnL0tBVjFWNmVibWQyWitlYWIyWGpXMEIzbThhd2lDVmV0V2J1dU51U2VvcmFqVythNG05aGFXaGRhJiN4QTt3TTJzYk1odHhjOVFqVGxOZ002OUdwTmRmdlVZemRPRXIzTHBoK3FhZ0cxWmpLTjM1RjNyNjlydnZhK2o4LzdkJiN4QTtlL2J1ZStEQmc0LzBEVHh4N09TcDhNUnBRcE5uTWxtV0M3ck5uR0dzMURlNDVGYjNtRi9kTjBuelRsajhLMGxHJiN4QTszWnBCSE9keVkxUHpobzJiTnJkczRSTEh2SXF2NFd2NU9sN05hM2p0NWEzYnR1L1lxZXk2cDQydjUzVzhnYnQ0JiN4QTtJMi9sVy9sMnZvTXJvVGh4cUtHYk5LaFpobVVITWxhQ0Jwbk9EQnJLMnBSazRnYU5aa2pLMUpPNlJwZ29ONUFnJiN4QTtqSXF5NGtTYlRObFd6a3djS2pxR0hTdG5helJBWjFnYlZOYUtwOHZWdmI4bjZGZFBIZW1QK05YU1JUVkxORHJvJiN4QTtVY1FHR2ZINjVZY085RDRjTHBkaGtnd05sVVhxakZVYzVudTlJYjk2dkZTdlhMWHNldlN4eDhjRkFRNnpkVFBGJiN4QTs1Uk1pZ0srL3hQTklqaEdCVnkyZExQZ09GZjNLeXNwaDErQ1JvME8zZFFIR3g0UVV6ekhxOENhK2hUZkg1T1ZJJiN4QTt3dEp5R1dxeUVvS0pMaytXUlF2RVpycG0wTm5hU002aEF2c2tTZEVKSVJheE90RkNpYlZacFYxWUVrclNzc1ZuJiN4QTtNcVZrdmRPalFES09rOC9FeGMwTVlXbm4vMmRGNDkzT0puSXMyUnN0NkdaV0lEVzFjcUpremxDWXBiQjhsaW9KJiN4QTszUmE4R0hraEVNM1dCVlpGU3hPYmFFeE1aMjF4Y0liOUorWkcrSWE1NDN3amJ4bjFxNE1DNEtvYUNMcEd4MExqJiN4QTtRbGYxczFRUWt4dzBTTW9SdWw4VTF0YlhVVzZoTFBOTmZQUG9pR1VTelJKTVI2S1ZDUE1ScjFCalR3b21CM1N0JiN4QTtPQmpFenMvSGlzYTRGcE9iN2lBNFVlWjhQdUc5cTcydHI3dWNhem5sU3V2RkdXZTZRT0Jiek9lZnYxQ244RzBpJiN4QTs1S1FoMGc2SXdadWY5QmFueXR6Zk05aWxpQTI4dnRqYnA0NE84WjNsTG5ZbVl3VjlqNWFkVmJ4S1pJQWFqQ2pEJiN4QTtTc1RXVTJsR2JOdWEvc2VvejRpNFU5TXh1Zm4yNFB4YnlNSlV6QXZWMEFpdDRJWk82SVlETUFURGNCSlVtSVpaJiN4QTtlQnFlaFl2d01yd0JiOEpiOERhOEMrL0RCM0FGUG9LUDRVdjRDcjZCYitFN1dJTHZZUmxXNFVlNEN0ZmdPdndPJiN4QTtOK0VXcWtFTlNFRzdVUTg2aUh6SWo0Sm9ESTJqMDBoSE5qcUxadEU1ZEFFOWh5NmlsOUFsOUFwNkQzMklQa1dMJiN4QTthQW45akg1QnY2RnIwaFhwRStrejZYUHBDMmxSK2xwYWtuNlNmcFd1U3pla1A2US9wVnZTWDdnSzEyQVpOK01XJiN4QTszSTQ3OEY3Y2p3L2pNTlp3R21keEhoY3d4K2Z4TS9nRi9DSytoT2Z3QW40TnY0NVg4RlY4bzl3RUNWVWU3d3o4JiN4QTtaK0diZndQOUpKNDk8L2V4aWY6VXNlckNvbW1lbnQ+CiAgICAgICAgIDxleGlmOlBpeGVsWERpbWVuc2lvbj4yNjY8L2V4aWY6UGl4ZWxYRGltZW5zaW9uPgogICAgICA8L3JkZjpEZXNjcmlwdGlvbj4KICAgPC9yZGY6UkRGPgo8L3g6eG1wbWV0YT4Kpp92+QAADJtJREFUeAHtmgvUVUUVx3mICoggCYWAIkQpGvFSlBIIhNI0jTBCVBaGVqvM8FmupHyQmEn6iSxLaimCUEE81mppLyGQkJWVomKGCIIgBAYCimhW/x/OhvGs+zjn3nPuvfDNXuv/zZyZvffM7D2PPfPdBg0CBQsECwQLFLFA4yL1obr2LNBcXWokvFt7XQs9KmCBeum3TjLIROHXwgShnxAoewv0UBNvC1uFo7NvLrSQkgXqpd/OlfGYrHuEWcJK4X/CLUKgbC2wQOqxNbg9g6YWS+cmYZ2wSnhWeEp4WnheeEl4RYDnYSFQPAtk7Td60VIgaqkJ6qZevCUwUccKpwob3fdrSgNlZ4HeUm2bBOlOIe2o4mbpfFB4RDA/W5vbXPlMpfcLXxICFbdAJfxGdI+/tghHFe9S9hwPqAmbpE2Un+6+KVsjBMrOAvOl2hatpUyQrOgJKbZ21ivfKquGDnK9Wfvto7LffwXz1bBq27OtOsCVgw790XXmevdNR690ZSFJ3wK9pBK7c837j8vznUVUIbUNmglcLW3y3UNhoMQWqITfOqlXFv1tV75j4l6mLDBC+mzi3OZ0H6r0s8JH3HdIsrHAPKllM+4h+FEc/jBfKJsaDZYm8zVp1U+p1EZWWUWV8tunNawrhLSvoiVZa5KkbPIML0lDECrFAj2d3ec6YUJN/jVqviCq+ICrSyvhYdr0s0GlrT+tftaynmr4rSbswYu4TZ6uNdGj+tEJNgiLJmzEM5QxX5D+wCpSSpd4+lekpLPSagaowd8JZ1a6YddeNfxWpaHub7ahsjsEJuUuoZEQKHsLcCqxSVg0YS2eoIwfVeCbtE79ptLlv0/UWaMHWDpS/WW+sllUmqrht0qPMWd7RBAYHSzLyREKs7AAP2iLRhPWzsPKmE9IJ1hFmenB8j7RTnbAdmyox5Zpk6TilfBbK3Xqk0Ip74OtJddPOF04RIgSbx0Dhe5CY6EgTVbtS8IaYZPgT0rKAPVjhfpGLKaFwuPCZzIaPA+XTPRoNGHNnahMNKpgApRL/JbCfE37aUUq5farFPkFbiw3liJcokwl/Hat+mb/6cBXy4U4vj9CfA8J/n/O+O3FeIFbw5FC9AB6RWXnCHnpStXMdNip1CbPUq+cRk8T6hOxw64XzB7blacsbSp0Kllb+Mf6QZpGVOG/Ra2whg7QlBMTuzDZ4yykNIaZtd8uVic5INj8WghsEoxxqlCI2PDh3SxcJiB7hsAPJZG/QXhM2CFcJHQQNgjUbRNi0TxxIQBOiSVx8DK1cXYwe7yp7yYpD/fj0lcomrDm+KUsk8b68rry5SyIppLf4+mrU/5Ap0UaAPbh16acmllS1n47Xp3fLdztDWKJ8oxvtVcWzTJu+Ige+K+ZT5P0YfOHlJ87QPYbKat7r7TI35dVjwAhC5OpvhOTzgzIz5nTpjlSyEZBGFuMZonB+kJ6azGBAvWDIrqGFeA9UKq6qKOciNgmjYir0Liz9hsbBGPhB3FQS8E29hV7S3L/Ga1ixj80R/V3XR31i7z6H3nlhXTvE2ntCTy7r7R+Z7hq9BeyiK66S2+caMI8cJIy0ajiKKtMmB5M7xP+0M/Shy0o7uDN/cqU8ln77VD1k4hxitffMcqzwME9Xnk0+4wKlkcL3fc0paZjtMfDVWWiwHsIj5tFyT9lphfl3s8wStm1wtX7i0IuhgVmiyduNGHqfqGMOZv0FqtImC729MQ6RRLqz8XOom1XATAfzUarlL9QaCSkRVn7jWsHB0Jvr8MLlbcxDfHK/ezh+uDhk80yFz2vQtPRPhdD3LKrPEXXxBUSH86gA+zggeJZIOmpZFqJKthczOGcPEmjiqaSsVMXPXVCXOKN5mdC57gCjg/+twXrd6XTF9Q20WG5VCm/HeJ1lI3DfM7TQKFNL98YeW8zHazXvOQ3nI+pp1fxdy9fLMup9gmB8CVQPAvc6Nhuise+j+s55TjRLnAlRyodJ4x333GS08VEeGu0yDIx0i+K51KBe20S2ixmHsrbJhEqg3eAJ7tLeQ4xTulyqVJ+443QaLQyDd3Hg0pZ8Pko3xj7S8B0LMonHLec+43t9NxbAmVjgY9JLc6eW6L6k528+Yp/27ZKoIvNyWTpRxJfLxV/kkMkQbdSY71Dmhgfi+0+4UNCGlQNv7G41wrmry4lDmSyp+OiEnXsFeN+845Ttq4cRUG2qAV+KQ4WaJz/dORT9itV2OQhZfHHpT+J0WSTvE9wZ0aOK2qt0p3qGH3kX9lnp9zJavhtkBsPY1pSxnj894kOZejZ+6pvk2dBTEXsbucLrWPyx2Vr7/R+TmnHPEJ9VX6e4L/Ssvv2EoYJxwm1SBYNlBpN2JjsdDOfxY0q7MHL5OpMYZGUq+uTAqd0Wid0kSYTV+N3xrVTGJBYurBAtfw2Td0yX431unir8j/1vgtlj1Gl6Vidh3Gwyv+Rp+59xZfpy5QVO524384TNgg8EjF5cFI51FjC1wvrBR69lgiLBHT/RGATgEh5+V8rvCbwmHeGwL15o8BDzYsCY/m+YHLKlkxsXPk2rKRK6Xu50YS1OVsZ85mN1+rypZ+KyMT12w1O7pF8iqtczgZIJIwdLs+gL9XwW1ONg/cVxkSExHsUxKa9RbiLD49YQ18QWMuHeeVjlLd58oBX7meX6eNvfkG+/BRVmLLP52Ny5Szcp4RWwigBuT8LpVJnCSKPnunCEQLE3RmDUN5dgM4StgtEEl8VqNstbBWGClAjgTCRuuuEcug2CbNZoYt7Xjl0koTR84zw4RRgJyg6wTYBnxSim1Rp/HHeJ5iUyJgNRhZSXsW6q9U243pcaJhyP6rlt35uTIxrpjcmHrIpszVhVb9x5dT58/73Xjl2ilJ/FSDz5WhFrm9bqAh0ysXgyroqZdL0cd91SpHBQaVQMwmtFNARXYhjXPm7So8ToPnC1L259363gdwbwqmuzJIRylC31ApKSNnB2YTQA/YITYRSaZYETVdW6fcKdI4T52mvDysK8FLVU1guWF93KM8pV4tEJEk/B2bQuWr57Rw3JsbFWoCIFP4psPh9aqcPNn7z1VWucqBXRh1vOD4RKROJ4eeiGywn8C4BRZuEQvR1VT7hGA5XSviP3LWuLGlCdII8i711RJiIYo5Am0ZEDgPdB5sGstPct5/YLvmOClv4FQnyzcXLNYg2wKsCi60U6iYhNjzTlVVKVNHS6+C5yv9QmCIQWvrt4jvqiJoM8M0W1go+L/mfC7VIPdQp+rdBYC6nSdXyG2NgPdicuVh51sOjwr+EYwWf8LlFfeuUbysQkWwU/ircLWCjNUIbATpbeFFYKbQXitIJ4kAJYJIUIk7UZo7hQqXIsBg/6MqSJDyKWbv3xhS0RcCEYFEgf2kO2a+5OgxNZFAqfUWCGHu1cEGpSiR3jWBjzTLlVDnP6ycTK432iKz6enprKXu5G+OkDDpVLb/ZUL6hDD5lHrMRsEn0F3LRN1XItRw+5ix+XyiwNokEfyxQ95bAIUH9H4SjhVhkCx5BjB6XHhMjMnPjCkT4hjt5dHAPTEKExciBLjkEZ7i653LUhaKDywKE3YTmpAcjHa9BsUaJDlsWGSAHaB/hEuFkIXqd4G1shIA+6hPRneK2RdcxpiSLk50OOUIYiPAlyel9h/iR3yYkpXESQHZ9DkGinq2ufmqO+lAULBAsUMQC3VV/n8DmYLvNk8qz6BYLcWmCGJF5WWAXY3ESno8RosQGYtcVv+4KfaBjlV+YI3+syjpEyu194qFIOZ8jBfS+IeSKNlQcKFggWCCfBfhX16sCiwicL7QRLDIYpXxc4pUUHXYv5C7/psB9yKfv6AP9nPAseJ+66cP6ki+SGSIeIo7rPEE2JsqQneyVkz1G4EGWum8JgYIFggUSWmCw+G1hkg4UWMjklwoswLi0WIzIsbmcImwQxgtR+osKrE02kyjdqwLqWfB++zyw1gk8vkwR2OSM/PcJNqferoKogw2Mh5+bBV+fPgMFCwQLxLFAVzHZomUR9hNeFwjRqUtCg8T8bwH53cJdQi7icXSXQLv352JQGRvMFmGzsEzgxRa9c4S+QpTGqQB98LHRsVm8INAOG8VQIVCwQLBAGRZgUbKgWFwsNv7dcqZQCjWWUB+hRQzhieK5vQhfZ9WfJrQtwjdf9fR9huPj/YMNJclDqhMNSbBAsEA+CxymiiECUUHTfEwpl/9W+i5JQSfXCXufyHWVSaGJoCJYIFigGhbgDYEfgrRKoXF0EU2AE1PQF1QECwQL1IAFuEasEb5dZl/4V+5w4VHBNgr+FdtLCBQsECyQkgX+D5ppf0L3GmmtAAAAAElFTkSuQmCC;" parent="1" vertex="1">
          <mxGeometry x="202" y="160" width="80" height="11.43" as="geometry" />
        </mxCell>
        <mxCell id="6rgcdNTC2bKChod3cp9X-31" value="" style="shape=image;verticalLabelPosition=bottom;labelBackgroundColor=default;verticalAlign=top;aspect=fixed;imageAspect=0;image=data:image/png,iVBORw0KGgoAAAANSUhEUgAAAQoAAAAmCAYAAAA80tUwAAABW2lDQ1BJQ0MgUHJvZmlsZQAAKJF1kL1Lw1AUxU9qJaKBKjiJQsDFIUpptepYq6hQMNQP/AAhTdtU6MfrS6wIbrq5+A/o5P+gOOmsmyII7urkIBZBS7wvVdsqXrjcH4fzLvcdwNdmMJbzA8gXHJ6YnlCXV1ZV+QEdkCCjByOGabOorsfJgu/ZXJVb8lJdD4pdkd3ya7Hr6OZZfXq83Ff2/vqbqj2Vtk2aH9RBk3EHkDRifcthgneIuzkdRXwg2KrxseBkjU89z0IiRnxF3GlmjRTxPbGWbNCtBs7nNs2vG8T1SrqwOC/2UPdCxwziUBHCKCKYwhiW/vEPe/4YimDYBscGLGTh0NsoKQw5pIlnUYCJIWjeziB1WOT8O7+6xuaA8TLgM+ra+iRw0g8ESnVtgP4TyAAXa8zgxk+qUsVvZ8KhGiscaH1z3Zc+QD4Dqtx13w9dt0oZttwB56VPyc5iK2/hwVsAAAXiZVhJZk1NACoAAAAIAAQBGgAFAAAAAQAAAD4BGwAFAAAAAQAAAEYBKAADAAAAAQACAACHaQAEAAAAAQAAAE4AAAAAAAAAkAAAAAEAAACQAAAAAQADkoYABwAABWkAAAB4oAIABAAAAAEAAAEKoAMABAAAAAEAAAAmAAAAAEFTQ0lJAAAAQUFBRkFuamFiVk5yYkJ0RkVKNjlUZHNrVGVKTDBrZWF2cTdFZ1lRK2NOSkFnOHNqVHRPMG9ZbjdPRHR4SEx0bQpmVjdiMTV6dnpOMDZpV3RGMmgrb3JSQUk4YXZRSDBBU0lTaEN2QVFWUWdLRUlJQVFpaUNKb0JJQzFGLzlnL3FqCmZ4Q3FrRmcvS0FWMVY2ZWJtZDJaK2VhYjJYalcwQjNtOGF3aUNWZXRXYnV1TnVTZW9yYWpXK2E0bTloYVdoZGEKd00yc2JNaHR4YzlRalRsTmdNNjlHcE5kZnZVWXpkT0VyM0xwaCtxYWdHMVpqS04zNUYzcjY5cnZ2YStqOC83ZAplL2J1ZStEQmc0LzBEVHh4N09TcDhNUnBRcE5uTWxtV0M3ck5uR0dzMURlNDVGYjNtRi9kTjBuelRsajhLMGxHCjNacEJIT2R5WTFQemhvMmJOcmRzNFJMSHZJcXY0V3Y1T2w3TmEzanQ1YTNidHUvWXFleTZwNDJ2NTNXOGdidDQKSTIvbFcvbDJ2b01yb1RoeHFLR2JOS2haaG1VSE1sYUNCcG5PREJySzJwUms0Z2FOWmtqSzFKTzZScGdvTjVBZwpqSXF5NGtTYlRObFd6a3djS2pxR0hTdG5helJBWjFnYlZOYUtwOHZWdmI4bjZGZFBIZW1QK05YU1JUVkxORHJvClVjUUdHZkg2NVljTzlENGNMcGRoa2d3TmxVWHFqRlVjNW51OUliOTZ2RlN2WExYc2V2U3h4OGNGQVE2emRUUEYKNVJNaWdLKy94UE5JamhHQlZ5MmRMUGdPRmYzS3lzcGgxK0NSbzBPM2RRSEd4NFFVenpIcThDYStoVGZINU9WSQp3dEp5R1dxeUVvS0pMaytXUlF2RVpycG0wTm5hU002aEF2c2tTZEVKSVJheE90RkNpYlZacFYxWUVrclNzc1ZuCk1xVmt2ZE9qUURLT2s4L0V4YzBNWVdubi8yZEY0OTNPSm5JczJSc3Q2R1pXSURXMWNxSmt6bENZcGJCOGxpb0oKM1JhOEdIa2hFTTNXQlZaRlN4T2JhRXhNWjIxeGNJYjlKK1pHK0lhNTQzd2pieG4xcTRNQzRLb2FDTHBHeDBMagpRbGYxczFRUWt4dzBTTW9SdWw4VTF0YlhVVzZoTFBOTmZQUG9pR1VTelJKTVI2S1ZDUE1ScjFCalR3b21CM1N0Ck9CakV6cy9IaXNhNEZwT2I3aUE0VWVaOFB1RzlxNzJ0cjd1Y2F6bmxTdXZGR1dlNlFPQmJ6T2VmdjFDbjhHMGkKNUtRaDBnNkl3WnVmOUJhbnl0emZNOWlsaUEyOHZ0amJwNDRPOFozbExuWW1Zd1Y5ajVhZFZieEtaSUFhakNqRApTc1RXVTJsR2JOdWEvc2VvejRpNFU5TXh1Zm4yNFB4YnlNSlV6QXZWMEFpdDRJWk82SVlETUFURGNCSlVtSVpaCmVCcWVoWXZ3TXJ3QmI4SmI4RGE4QysvREIzQUZQb0tQNFV2NENyNkJiK0U3V0lMdllSbFc0VWU0Q3RmZ092d08KTitFV3FrRU5TRUc3VVE4NmlIeklqNEpvREkyajAwaEhOanFMWnRFNWRBRTloeTZpbDlBbDlBcDZEMzJJUGtXTAphQW45akg1QnY2RnIwaFhwRStrejZYUHBDMmxSK2xwYWtuNlNmcFd1U3pla1A2US9wVnZTWDdnSzEyQVpOK01XCjNJNDc4Rjdjancvak1OWndHbWR4SGhjd3grZnhNL2dGL0NLK2hPZndBbjROdjQ1WDhGVjhvOXdFQ1ZVZTd3ejgKWitHYmZ3UDlKSjQ5AMXbmosAAAAJcEhZcwAAFiUAABYlAUlSJPAAAAhRaVRYdFhNTDpjb20uYWRvYmUueG1wAAAAAAA8eDp4bXBtZXRhIHhtbG5zOng9ImFkb2JlOm5zOm1ldGEvIiB4OnhtcHRrPSJYTVAgQ29yZSA2LjAuMCI+CiAgIDxyZGY6UkRGIHhtbG5zOnJkZj0iaHR0cDovL3d3dy53My5vcmcvMTk5OS8wMi8yMi1yZGYtc3ludGF4LW5zIyI+CiAgICAgIDxyZGY6RGVzY3JpcHRpb24gcmRmOmFib3V0PSIiCiAgICAgICAgICAgIHhtbG5zOnRpZmY9Imh0dHA6Ly9ucy5hZG9iZS5jb20vdGlmZi8xLjAvIgogICAgICAgICAgICB4bWxuczpleGlmPSJodHRwOi8vbnMuYWRvYmUuY29tL2V4aWYvMS4wLyI+CiAgICAgICAgIDx0aWZmOllSZXNvbHV0aW9uPjE0NDwvdGlmZjpZUmVzb2x1dGlvbj4KICAgICAgICAgPHRpZmY6WFJlc29sdXRpb24+MTQ0PC90aWZmOlhSZXNvbHV0aW9uPgogICAgICAgICA8dGlmZjpSZXNvbHV0aW9uVW5pdD4yPC90aWZmOlJlc29sdXRpb25Vbml0PgogICAgICAgICA8ZXhpZjpQaXhlbFlEaW1lbnNpb24+Mzg8L2V4aWY6UGl4ZWxZRGltZW5zaW9uPgogICAgICAgICA8ZXhpZjpVc2VyQ29tbWVudD5BQUFGQW5qYWJWTnJiQnRGRUo2OVRkc2tUZUpMMGtlYXZxN0VnWVErY05KQWc4c2pUdE8wb1luN09EdHhITHRtJiN4QTtmVjdiMTV6dnpOMDZpV3RGMmgrb3JSQUk4YXZRSDBBU0lTaEN2QVFWUWdLRUlJQVFpaUNKb0JJQzFGLzlnL3FqJiN4QTtmeENxa0ZnL0tBVjFWNmVibWQyWitlYWIyWGpXMEIzbThhd2lDVmV0V2J1dU51U2VvcmFqVythNG05aGFXaGRhJiN4QTt3TTJzYk1odHhjOVFqVGxOZ002OUdwTmRmdlVZemRPRXIzTHBoK3FhZ0cxWmpLTjM1RjNyNjlydnZhK2o4LzdkJiN4QTtlL2J1ZStEQmc0LzBEVHh4N09TcDhNUnBRcE5uTWxtV0M3ck5uR0dzMURlNDVGYjNtRi9kTjBuelRsajhLMGxHJiN4QTszWnBCSE9keVkxUHpobzJiTnJkczRSTEh2SXF2NFd2NU9sN05hM2p0NWEzYnR1L1lxZXk2cDQydjUzVzhnYnQ0JiN4QTtJMi9sVy9sMnZvTXJvVGh4cUtHYk5LaFpobVVITWxhQ0Jwbk9EQnJLMnBSazRnYU5aa2pLMUpPNlJwZ29ONUFnJiN4QTtqSXF5NGtTYlRObFd6a3djS2pxR0hTdG5helJBWjFnYlZOYUtwOHZWdmI4bjZGZFBIZW1QK05YU1JUVkxORHJvJiN4QTtVY1FHR2ZINjVZY085RDRjTHBkaGtnd05sVVhxakZVYzVudTlJYjk2dkZTdlhMWHNldlN4eDhjRkFRNnpkVFBGJiN4QTs1Uk1pZ0srL3hQTklqaEdCVnkyZExQZ09GZjNLeXNwaDErQ1JvME8zZFFIR3g0UVV6ekhxOENhK2hUZkg1T1ZJJiN4QTt3dEp5R1dxeUVvS0pMaytXUlF2RVpycG0wTm5hU002aEF2c2tTZEVKSVJheE90RkNpYlZacFYxWUVrclNzc1ZuJiN4QTtNcVZrdmRPalFES09rOC9FeGMwTVlXbm4vMmRGNDkzT0puSXMyUnN0NkdaV0lEVzFjcUpremxDWXBiQjhsaW9KJiN4QTszUmE4R0hraEVNM1dCVlpGU3hPYmFFeE1aMjF4Y0liOUorWkcrSWE1NDN3amJ4bjFxNE1DNEtvYUNMcEd4MExqJiN4QTtRbGYxczFRUWt4dzBTTW9SdWw4VTF0YlhVVzZoTFBOTmZQUG9pR1VTelJKTVI2S1ZDUE1ScjFCalR3b21CM1N0JiN4QTtPQmpFenMvSGlzYTRGcE9iN2lBNFVlWjhQdUc5cTcydHI3dWNhem5sU3V2RkdXZTZRT0Jiek9lZnYxQ244RzBpJiN4QTs1S1FoMGc2SXdadWY5QmFueXR6Zk05aWxpQTI4dnRqYnA0NE84WjNsTG5ZbVl3VjlqNWFkVmJ4S1pJQWFqQ2pEJiN4QTtTc1RXVTJsR2JOdWEvc2VvejRpNFU5TXh1Zm4yNFB4YnlNSlV6QXZWMEFpdDRJWk82SVlETUFURGNCSlVtSVpaJiN4QTtlQnFlaFl2d01yd0JiOEpiOERhOEMrL0RCM0FGUG9LUDRVdjRDcjZCYitFN1dJTHZZUmxXNFVlNEN0ZmdPdndPJiN4QTtOK0VXcWtFTlNFRzdVUTg2aUh6SWo0Sm9ESTJqMDBoSE5qcUxadEU1ZEFFOWh5NmlsOUFsOUFwNkQzMklQa1dMJiN4QTthQW45akg1QnY2RnIwaFhwRStrejZYUHBDMmxSK2xwYWtuNlNmcFd1U3pla1A2US9wVnZTWDdnSzEyQVpOK01XJiN4QTszSTQ3OEY3Y2p3L2pNTlp3R21keEhoY3d4K2Z4TS9nRi9DSytoT2Z3QW40TnY0NVg4RlY4bzl3RUNWVWU3d3o4JiN4QTtaK0diZndQOUpKNDk8L2V4aWY6VXNlckNvbW1lbnQ+CiAgICAgICAgIDxleGlmOlBpeGVsWERpbWVuc2lvbj4yNjY8L2V4aWY6UGl4ZWxYRGltZW5zaW9uPgogICAgICA8L3JkZjpEZXNjcmlwdGlvbj4KICAgPC9yZGY6UkRGPgo8L3g6eG1wbWV0YT4Kpp92+QAADJtJREFUeAHtmgvUVUUVx3mICoggCYWAIkQpGvFSlBIIhNI0jTBCVBaGVqvM8FmupHyQmEn6iSxLaimCUEE81mppLyGQkJWVomKGCIIgBAYCimhW/x/OhvGs+zjn3nPuvfDNXuv/zZyZvffM7D2PPfPdBg0CBQsECwQLFLFA4yL1obr2LNBcXWokvFt7XQs9KmCBeum3TjLIROHXwgShnxAoewv0UBNvC1uFo7NvLrSQkgXqpd/OlfGYrHuEWcJK4X/CLUKgbC2wQOqxNbg9g6YWS+cmYZ2wSnhWeEp4WnheeEl4RYDnYSFQPAtk7Td60VIgaqkJ6qZevCUwUccKpwob3fdrSgNlZ4HeUm2bBOlOIe2o4mbpfFB4RDA/W5vbXPlMpfcLXxICFbdAJfxGdI+/tghHFe9S9hwPqAmbpE2Un+6+KVsjBMrOAvOl2hatpUyQrOgJKbZ21ivfKquGDnK9Wfvto7LffwXz1bBq27OtOsCVgw790XXmevdNR690ZSFJ3wK9pBK7c837j8vznUVUIbUNmglcLW3y3UNhoMQWqITfOqlXFv1tV75j4l6mLDBC+mzi3OZ0H6r0s8JH3HdIsrHAPKllM+4h+FEc/jBfKJsaDZYm8zVp1U+p1EZWWUWV8tunNawrhLSvoiVZa5KkbPIML0lDECrFAj2d3ec6YUJN/jVqviCq+ICrSyvhYdr0s0GlrT+tftaynmr4rSbswYu4TZ6uNdGj+tEJNgiLJmzEM5QxX5D+wCpSSpd4+lekpLPSagaowd8JZ1a6YddeNfxWpaHub7ahsjsEJuUuoZEQKHsLcCqxSVg0YS2eoIwfVeCbtE79ptLlv0/UWaMHWDpS/WW+sllUmqrht0qPMWd7RBAYHSzLyREKs7AAP2iLRhPWzsPKmE9IJ1hFmenB8j7RTnbAdmyox5Zpk6TilfBbK3Xqk0Ip74OtJddPOF04RIgSbx0Dhe5CY6EgTVbtS8IaYZPgT0rKAPVjhfpGLKaFwuPCZzIaPA+XTPRoNGHNnahMNKpgApRL/JbCfE37aUUq5farFPkFbiw3liJcokwl/Hat+mb/6cBXy4U4vj9CfA8J/n/O+O3FeIFbw5FC9AB6RWXnCHnpStXMdNip1CbPUq+cRk8T6hOxw64XzB7blacsbSp0Kllb+Mf6QZpGVOG/Ra2whg7QlBMTuzDZ4yykNIaZtd8uVic5INj8WghsEoxxqlCI2PDh3SxcJiB7hsAPJZG/QXhM2CFcJHQQNgjUbRNi0TxxIQBOiSVx8DK1cXYwe7yp7yYpD/fj0lcomrDm+KUsk8b68rry5SyIppLf4+mrU/5Ap0UaAPbh16acmllS1n47Xp3fLdztDWKJ8oxvtVcWzTJu+Ige+K+ZT5P0YfOHlJ87QPYbKat7r7TI35dVjwAhC5OpvhOTzgzIz5nTpjlSyEZBGFuMZonB+kJ6azGBAvWDIrqGFeA9UKq6qKOciNgmjYir0Liz9hsbBGPhB3FQS8E29hV7S3L/Ga1ixj80R/V3XR31i7z6H3nlhXTvE2ntCTy7r7R+Z7hq9BeyiK66S2+caMI8cJIy0ajiKKtMmB5M7xP+0M/Shy0o7uDN/cqU8ln77VD1k4hxitffMcqzwME9Xnk0+4wKlkcL3fc0paZjtMfDVWWiwHsIj5tFyT9lphfl3s8wStm1wtX7i0IuhgVmiyduNGHqfqGMOZv0FqtImC729MQ6RRLqz8XOom1XATAfzUarlL9QaCSkRVn7jWsHB0Jvr8MLlbcxDfHK/ezh+uDhk80yFz2vQtPRPhdD3LKrPEXXxBUSH86gA+zggeJZIOmpZFqJKthczOGcPEmjiqaSsVMXPXVCXOKN5mdC57gCjg/+twXrd6XTF9Q20WG5VCm/HeJ1lI3DfM7TQKFNL98YeW8zHazXvOQ3nI+pp1fxdy9fLMup9gmB8CVQPAvc6Nhuise+j+s55TjRLnAlRyodJ4x333GS08VEeGu0yDIx0i+K51KBe20S2ixmHsrbJhEqg3eAJ7tLeQ4xTulyqVJ+443QaLQyDd3Hg0pZ8Pko3xj7S8B0LMonHLec+43t9NxbAmVjgY9JLc6eW6L6k528+Yp/27ZKoIvNyWTpRxJfLxV/kkMkQbdSY71Dmhgfi+0+4UNCGlQNv7G41wrmry4lDmSyp+OiEnXsFeN+845Ttq4cRUG2qAV+KQ4WaJz/dORT9itV2OQhZfHHpT+J0WSTvE9wZ0aOK2qt0p3qGH3kX9lnp9zJavhtkBsPY1pSxnj894kOZejZ+6pvk2dBTEXsbucLrWPyx2Vr7/R+TmnHPEJ9VX6e4L/Ssvv2EoYJxwm1SBYNlBpN2JjsdDOfxY0q7MHL5OpMYZGUq+uTAqd0Wid0kSYTV+N3xrVTGJBYurBAtfw2Td0yX431unir8j/1vgtlj1Gl6Vidh3Gwyv+Rp+59xZfpy5QVO524384TNgg8EjF5cFI51FjC1wvrBR69lgiLBHT/RGATgEh5+V8rvCbwmHeGwL15o8BDzYsCY/m+YHLKlkxsXPk2rKRK6Xu50YS1OVsZ85mN1+rypZ+KyMT12w1O7pF8iqtczgZIJIwdLs+gL9XwW1ONg/cVxkSExHsUxKa9RbiLD49YQ18QWMuHeeVjlLd58oBX7meX6eNvfkG+/BRVmLLP52Ny5Szcp4RWwigBuT8LpVJnCSKPnunCEQLE3RmDUN5dgM4StgtEEl8VqNstbBWGClAjgTCRuuuEcug2CbNZoYt7Xjl0koTR84zw4RRgJyg6wTYBnxSim1Rp/HHeJ5iUyJgNRhZSXsW6q9U243pcaJhyP6rlt35uTIxrpjcmHrIpszVhVb9x5dT58/73Xjl2ilJ/FSDz5WhFrm9bqAh0ysXgyroqZdL0cd91SpHBQaVQMwmtFNARXYhjXPm7So8ToPnC1L259363gdwbwqmuzJIRylC31ApKSNnB2YTQA/YITYRSaZYETVdW6fcKdI4T52mvDysK8FLVU1guWF93KM8pV4tEJEk/B2bQuWr57Rw3JsbFWoCIFP4psPh9aqcPNn7z1VWucqBXRh1vOD4RKROJ4eeiGywn8C4BRZuEQvR1VT7hGA5XSviP3LWuLGlCdII8i711RJiIYo5Am0ZEDgPdB5sGstPct5/YLvmOClv4FQnyzcXLNYg2wKsCi60U6iYhNjzTlVVKVNHS6+C5yv9QmCIQWvrt4jvqiJoM8M0W1go+L/mfC7VIPdQp+rdBYC6nSdXyG2NgPdicuVh51sOjwr+EYwWf8LlFfeuUbysQkWwU/ircLWCjNUIbATpbeFFYKbQXitIJ4kAJYJIUIk7UZo7hQqXIsBg/6MqSJDyKWbv3xhS0RcCEYFEgf2kO2a+5OgxNZFAqfUWCGHu1cEGpSiR3jWBjzTLlVDnP6ycTK432iKz6enprKXu5G+OkDDpVLb/ZUL6hDD5lHrMRsEn0F3LRN1XItRw+5ix+XyiwNokEfyxQ95bAIUH9H4SjhVhkCx5BjB6XHhMjMnPjCkT4hjt5dHAPTEKExciBLjkEZ7i653LUhaKDywKE3YTmpAcjHa9BsUaJDlsWGSAHaB/hEuFkIXqd4G1shIA+6hPRneK2RdcxpiSLk50OOUIYiPAlyel9h/iR3yYkpXESQHZ9DkGinq2ufmqO+lAULBAsUMQC3VV/n8DmYLvNk8qz6BYLcWmCGJF5WWAXY3ESno8RosQGYtcVv+4KfaBjlV+YI3+syjpEyu194qFIOZ8jBfS+IeSKNlQcKFggWCCfBfhX16sCiwicL7QRLDIYpXxc4pUUHXYv5C7/psB9yKfv6AP9nPAseJ+66cP6ki+SGSIeIo7rPEE2JsqQneyVkz1G4EGWum8JgYIFggUSWmCw+G1hkg4UWMjklwoswLi0WIzIsbmcImwQxgtR+osKrE02kyjdqwLqWfB++zyw1gk8vkwR2OSM/PcJNqferoKogw2Mh5+bBV+fPgMFCwQLxLFAVzHZomUR9hNeFwjRqUtCg8T8bwH53cJdQi7icXSXQLv352JQGRvMFmGzsEzgxRa9c4S+QpTGqQB98LHRsVm8INAOG8VQIVCwQLBAGRZgUbKgWFwsNv7dcqZQCjWWUB+hRQzhieK5vQhfZ9WfJrQtwjdf9fR9huPj/YMNJclDqhMNSbBAsEA+CxymiiECUUHTfEwpl/9W+i5JQSfXCXufyHWVSaGJoCJYIFigGhbgDYEfgrRKoXF0EU2AE1PQF1QECwQL1IAFuEasEb5dZl/4V+5w4VHBNgr+FdtLCBQsECyQkgX+D5ppf0L3GmmtAAAAAElFTkSuQmCC;" parent="1" vertex="1">
          <mxGeometry x="395" y="344.28999999999996" width="80" height="11.43" as="geometry" />
        </mxCell>
        <mxCell id="6rgcdNTC2bKChod3cp9X-32" value="" style="shape=image;verticalLabelPosition=bottom;labelBackgroundColor=default;verticalAlign=top;aspect=fixed;imageAspect=0;image=data:image/png,iVBORw0KGgoAAAANSUhEUgAAAQgAAAAmCAYAAAA4JwUNAAABW2lDQ1BJQ0MgUHJvZmlsZQAAKJF1kL1Lw1AUxU9qJaKBKjiJQsDFIUpptepYq6hQMNQP/AAhTdtU6MfrS6wIbrq5+A/o5P+gOOmsmyII7urkIBZBS7wvVdsqXrjcH4fzLvcdwNdmMJbzA8gXHJ6YnlCXV1ZV+QEdkCCjByOGabOorsfJgu/ZXJVb8lJdD4pdkd3ya7Hr6OZZfXq83Ff2/vqbqj2Vtk2aH9RBk3EHkDRifcthgneIuzkdRXwg2KrxseBkjU89z0IiRnxF3GlmjRTxPbGWbNCtBs7nNs2vG8T1SrqwOC/2UPdCxwziUBHCKCKYwhiW/vEPe/4YimDYBscGLGTh0NsoKQw5pIlnUYCJIWjeziB1WOT8O7+6xuaA8TLgM+ra+iRw0g8ESnVtgP4TyAAXa8zgxk+qUsVvZ8KhGiscaH1z3Zc+QD4Dqtx13w9dt0oZttwB56VPyc5iK2/hwVsAAAXiZVhJZk1NACoAAAAIAAQBGgAFAAAAAQAAAD4BGwAFAAAAAQAAAEYBKAADAAAAAQACAACHaQAEAAAAAQAAAE4AAAAAAAAAkAAAAAEAAACQAAAAAQADkoYABwAABWkAAAB4oAIABAAAAAEAAAEIoAMABAAAAAEAAAAmAAAAAEFTQ0lJAAAAQUFBRkFuamFiVk5kYkJ0RkVKNjlUZHNrYmVKTDBwODAvYnNTQnhMNlE1SUdHbHgrNGpSMUc1cTRQMmNuVG1MWApyTTlyKzVyem5ibGJKM0dzU1B1QUNrTHd3Rk5wSDRBNFFsQ0VnQ0tvVUNWQUNBSUlvUWlTQ0NvaFFIM3FDK3BEClh4Q3FrRmovVUFycXJrNDNNN3N6ODgwM3M3R01vVHVzczNNVlNiaHF6ZHAxdFNIM0ZMVWQzVExIM01UV1VyclEKQW01bVpVSnVLM2FXYXN4cEJIVHU5YWpzOHF2SGFZN0d2WlZMUDFUWEJHekxZaHk5Sis5ZXY2SHQvZ2ZhT3g3YwpzM2ZmL29jZVB2UlkzOEJUeDArZEhwODRRMmppYkRyRHNrRzNtVFdNbGJwNmw5emlIdldyK3lkcHpoa1gvMHFTCkViZG1FTWU1MU5EWXRISFQ1aTNOVzduRU1hL2lhL2hhdm81WDh4cGVlMm5iOWgwN2R5bTc3MnZsNi9rR1hzOWQKdklHMzhHMThCOS9KbFZDTU9OVFFUUnJVTE1PeUEya3JUb05NWndZTlpXeEswakdEUnRJa2Flb0pYU05NbEJ1SQpFMFpGV1RHaVRTWnRLMnZHRHhjZHh4MHJhMnMwUUdkWUsxVFdTbWVYcS90QVQ5Q3ZuajdhSC9hcnBZdHFobWpVCjE2bUlEVExpZGN1UEhPeDlkTHhjaGtuU05GUVdxVE5hY1NqMGVrSis5VVNwWHJscTJmWDRFMCtPQ1FJY1p1dG0Ka3NzblJRQnZmNG5uNFN3akFxOWFPbG53SGk3NmxaV1ZJeTdmMFdPRGQzUUJ4c3VFRk1zeTZ2Qkd2cFUzUmVYbApjTnpTc21scXNoS0NpYTdPREl2a2ljMTB6YUJ6dGVHc1F3WDJTWktrRTBJc1luVWkrUkpyYzBxYnNNU1ZoR1dMCnoyUkt5WHEzUjU2a0hTZVhqb21iYWNKU3p2L1Bpc1o3blUxa1dhSTNrdGZOakVCcWF1VkVpYXloTUV0aHVReFYKNHJvdGVERnlRaUNhclF1c2lwWWlOdEdZbU03YTR1QU0rVS9PRC9PTjh5ZjRKdDQ4NGxkOUF1Q3FHZ2k2UmtaRApZMEpYOVZrcWlFbjRESkowaE80WGhiWDJ0WmRiS010OE05OHlNbXlaUkxNRTArRklKVUloN0JGcTlHbkI1SUN1CkZRZUQyTGxDdEdpTWFWRzU4UzZDNDJYT0MzSFBQZTJ0ZmQzbFhNdEpWMG92empqVEJRTHZZbTYyK3ZMVkMzeTcKQ0RscGlMUURZdkFLazU3aVZKa0hlbnhkaXRqQTY0cTlmZWJZSU45VjdtSkhJcHJYOTJyT25PSlJ3Z1BVWUVRWgpVc0sybmt3eFl0dlc5RDlHZlViRW5acU95azEzQnVmZlFoYW1vaDZvaGdab0FUZDBRRGNjaEVFWWdsT2d3alRNCndiUHdJcHlIVitFdGVCdmVnWGZoZmZnQVBvUXI4REZjaFMvaEsvZ0d2b1h2WUFtK2gyVlloUi9oR2x5SEcvQTcKM0lMYnFBYlZJd1h0UVQzb0VQSWlQd3FpVVRTR3ppQWQyV2dXemFGejZIbjBFanFQTHFDTDZEVjBHWDJFUGtXTAphQW45akg1QnY2SHIwaFhwRStrejZYUHBDMmxSK2xwYWtuNlNmcFZ1U0RlbFA2US9wZHZTWDdnSzEyQVpOK0ZtCjNJYmI4VDdjajQvZ2NhemhGTTdnSE01ampwL0RMK0NYOFN2NElwN0hDL2dOL0NaZXdkZnd6WElUSkZSNXZEUHcKbjRWdi9RMDNpNThLAJBwfvUAAAAJcEhZcwAAFiUAABYlAUlSJPAAAAhRaVRYdFhNTDpjb20uYWRvYmUueG1wAAAAAAA8eDp4bXBtZXRhIHhtbG5zOng9ImFkb2JlOm5zOm1ldGEvIiB4OnhtcHRrPSJYTVAgQ29yZSA2LjAuMCI+CiAgIDxyZGY6UkRGIHhtbG5zOnJkZj0iaHR0cDovL3d3dy53My5vcmcvMTk5OS8wMi8yMi1yZGYtc3ludGF4LW5zIyI+CiAgICAgIDxyZGY6RGVzY3JpcHRpb24gcmRmOmFib3V0PSIiCiAgICAgICAgICAgIHhtbG5zOnRpZmY9Imh0dHA6Ly9ucy5hZG9iZS5jb20vdGlmZi8xLjAvIgogICAgICAgICAgICB4bWxuczpleGlmPSJodHRwOi8vbnMuYWRvYmUuY29tL2V4aWYvMS4wLyI+CiAgICAgICAgIDx0aWZmOllSZXNvbHV0aW9uPjE0NDwvdGlmZjpZUmVzb2x1dGlvbj4KICAgICAgICAgPHRpZmY6WFJlc29sdXRpb24+MTQ0PC90aWZmOlhSZXNvbHV0aW9uPgogICAgICAgICA8dGlmZjpSZXNvbHV0aW9uVW5pdD4yPC90aWZmOlJlc29sdXRpb25Vbml0PgogICAgICAgICA8ZXhpZjpQaXhlbFlEaW1lbnNpb24+Mzg8L2V4aWY6UGl4ZWxZRGltZW5zaW9uPgogICAgICAgICA8ZXhpZjpVc2VyQ29tbWVudD5BQUFGQW5qYWJWTmRiQnRGRUo2OVRkc2tiZUpMMHA4MC9ic1NCeEw2UTVJR0dseCs0alIxRzVxNFAyY25UbUxYJiN4QTtyTTlyKzVyem5ibGJKM0dzU1B1QUNrTHd3Rk5wSDRBNFFsQ0VnQ0tvVUNWQUNBSUlvUWlTQ0NvaFFIM3FDK3BEJiN4QTtYeENxa0ZqL1VBcnFyazQzTTdzejg4MDNzN0dNb1R1c3MzTVZTYmhxemRwMXRTSDNGTFVkM1RMSDNNVFdVcnJRJiN4QTtBbTVtWlVKdUszYVdhc3hwQkhUdTlhanM4cXZIYVk3R3ZaVkxQMVRYQkd6TFloeTlKKzlldjZIdC9nZmFPeDdjJiN4QTtzM2ZmL29jZVB2UlkzOEJUeDArZEhwODRRMmppYkRyRHNrRzNtVFdNbGJwNmw5emlIdldyK3lkcHpoa1gvMHFTJiN4QTtFYmRtRU1lNTFORFl0SEhUNWkzTlc3bkVNYS9pYS9oYXZvNVg4eHBlZTJuYjloMDdkeW03NzJ2bDYva0dYczlkJiN4QTt2SUczOEcxOEI5L0psVkNNT05UUVRSclVMTU95QTJrclRvTk1ad1lOWld4SzBqR0RSdElrYWVvSlhTTk1sQnVJJiN4QTtFMFpGV1RHaVRTWnRLMnZHRHhjZHh4MHJhMnMwUUdkWUsxVFdTbWVYcS90QVQ5Q3ZuajdhSC9hcnBZdHFobWpVJiN4QTsxNm1JRFRMaWRjdVBIT3g5ZEx4Y2hrblNORlFXcVROYWNTajBla0orOVVTcFhybHEyZlg0RTArT0NRSWNadXRtJiN4QTtrc3NuUlFCdmY0bm40U3dqQXE5YU9sbndIaTc2bFpXVkl5N2YwV09EZDNRQnhzdUVGTXN5NnZCR3ZwVTNSZVhsJiN4QTtjTnpTc21scXNoS0NpYTdPREl2a2ljMTB6YUJ6dGVHc1F3WDJTWktrRTBJc1luVWkrUkpyYzBxYnNNU1ZoR1dMJiN4QTt6MlJLeVhxM1I1NmtIU2VYam9tYmFjSlN6di9QaXNaN25VMWtXYUkza3RmTmpFQnFhdVZFaWF5aE1FdGh1UXhWJiN4QTs0cm90ZURGeVFpQ2FyUXVzaXBZaU50R1ltTTdhNHVBTStVL09EL09OOHlmNEp0NDg0bGQ5QXVDcUdnaTZSa1pEJiN4QTtZMEpYOVZrcWlFbjRESkowaE80WGhiWDJ0WmRiS010OE05OHlNbXlaUkxNRTArRklKVUloN0JGcTlHbkI1SUN1JiN4QTtGUWVEMkxsQ3RHaU1hVkc1OFM2QzQyWE9DM0hQUGUydGZkM2xYTXRKVjBvdnpqalRCUUx2WW02Mit2TFZDM3k3JiN4QTtDRGxwaUxRRFl2QUtrNTdpVkprSGVueGRpdGpBNjRxOWZlYllJTjlWN21KSElwclg5MnJPbk9KUndnUFVZRVFaJiN4QTtVc0sybmt3eFl0dlc5RDlHZlViRW5acU95azEzQnVmZlFoYW1vaDZvaGdab0FUZDBRRGNjaEVFWWdsT2d3alRNJiN4QTt3YlB3SXB5SFYrRXRlQnZlZ1hmaGZmZ0FQb1FyOERGY2hTL2hLL2dHdm9YdllBbStoMlZZaFIvaEdseUhHL0E3JiN4QTszSUxicUFiVkl3WHRRVDNvRVBJaVB3cWlVVFNHemlBZDJXZ1d6YUZ6NkhuMEVqcVBMcUNMNkRWMEdYMkVQa1dMJiN4QTthQW45akg1QnY2SHIwaFhwRStrejZYUHBDMmxSK2xwYWtuNlNmcFZ1U0RlbFA2US9wZHZTWDdnSzEyQVpOK0ZtJiN4QTszSWJiOFQ3Y2o0L2djYXpoRk03Z0hNNWpqcC9ETCtDWDhTdjRJcDdIQy9nTi9DWmV3ZGZ3elhJVEpGUjV2RFB3JiN4QTtuNFZ2L1EwM2k1OEs8L2V4aWY6VXNlckNvbW1lbnQ+CiAgICAgICAgIDxleGlmOlBpeGVsWERpbWVuc2lvbj4yNjQ8L2V4aWY6UGl4ZWxYRGltZW5zaW9uPgogICAgICA8L3JkZjpEZXNjcmlwdGlvbj4KICAgPC9yZGY6UkRGPgo8L3g6eG1wbWV0YT4KFXNm0QAADE1JREFUeAHtmnu0V0UVx3mqgAgiUsRDBAkFIwxQwQICsSJNI80UlEWB/VHmSsXKlWQpgZmoV2RZVguNgEyCWKtlZcENJKQsFQ0rQlBEQDQQ8IH2+n50tgyH3+Oc3++c37lwZ6/1vTNnZu89M3vPY8/cX5MmgYIFggWCBYpYoHmR8lDc8CzQRl1qJvyn4XUt9KiEBRqd33rIGDOEnwvThKFCoGwtMEDq3xBeFDpm21TQnqIFGp3fzpHxmKh7hQXCWuF/wg1CoOwssESqsTO4KYNmlkvnVuFZYZ3wpPCY8LjwlPC08JwAzzwhUDwLZO03etFOIErJnfqqB68LTNJJwqnC8+77JaWBsrHAQKm1zYF0t5B2FPEt6bxHeEAwH1ubO1z5fKV3C58RApW3QC38RiSPv7YLR5fvUrYcc6TeJmhL5ee6b8o2CIGyscAvpNYWq6VMjKzoYSm2djYp3z6rhg5xvVn7rY/s91/BfDU2T3t2UuNcLejM71xHvuK+6eQVriwk6VrgA1KHzbnK/dvl+c4iipDaJq0Fro826e6gMFBiC9TCbz3UK4v2dirfLXEvUxS4ULps0kx3eg9T+nHhve47JOlbYLFUsgEPEPyIDV+YH5RNjUZJk/mZNNdTKbVR1V5Rrfz2EQ3tciHtK2dii82UhE2c8xNLB4FKLHCKs/kiJ0xIyb84zQ9EEce4urQSHptNPxtT2vrT6mdD1pOH33K3B6/cNnF6596bxtEBNgaLHmzEP1HG/ED6batIKV3h6V+Tks5aqxmuBn8jnFnrhl17efgtp6G+3WxTJbsEJuQeoZkQKFsLcAqxOVj0YK2dqIwfReCXtE75VtLlvz/UWaMHWXqR+stcZZOoNeXht1qP8YD2iBgwOFh1QG0oyMIC/AgtGj1YO/OUMX+QTrOKKtND5f2hs+yA7dhIu1dpk6TitfBbe3Xqg0LSt78OkhkqDBFaCFHiHWOE0F9oLpSkWap9WtggbBX8CUkZoH6S0JiIRbRMeEj4aEYD50GSCR6NHqy5k5SJRhE4v1ritxDmZ9pPKzKptl+VyC9xY7muEuEKZWrhtynqm/3nAl+tFsr5/kjx/Fjw/wvG7yamCtwOjhKih85zKjtbKEpXqGa+w26lNnFWeuU0errQWIhddZNgttipPGVpU6lTyNrCN9YP0jSiCP+daY01dJCmnJLYhYlebgGlNcSs/XaJOsrBwKbXVmBzYIw/EIoRmzx824TJAnIfEvhhI7LXCkuFXcJ4oauwWaBuhxBrfi92AggNFhorHauBYwPDq8q3TNkY75e+UtGDNcevWpks1peXla9mIbSS/F5PX53yBzvVawDYh1+HclJmSVn77Xh1/jXhdm8QK5RnfOu9Mj/LmOEhWuA/YD7N1IfNHVJ+rgDZb5usjjlflp4RBwKEKEykxkxMNjMePztOmxZKIRsE4Wo5WiAG6wvpjeUEStSPjOgaW4L3YKnqpY5yCmKbNCKsUuPO2m9sDIyFH7JB7QTb0Ne8VXLgnwkqYuxnHVjV5Ouujvp6r/67XnkxvR7726cSSsCT+9U0zg9CrmFCFpFUf+mNEz2Y5fspE40ijrbKhOmh9P7gD/1j+rCFxD27jV+ZUj5rvx2mfhIhzvb6O1F5W5d3eOV+9gl9rPYLvPy9ypv8BK+cK8kMYYrAo2VZ8k+WuWW59zGMU3ajcNW+opArY4H7VR83ejBVP1XGHE16g1UkTJd7emKdHAn1F2JnsXauAZiLZqN1yl8sNBPSoqz9xvWCg2Cg1+FlytuYRnvllj1CGR4z2SAL0VMqNPkuhRjill3pKbo6rpD4cAQdYNcOVN4CSU8h00gUwaZizuakSRpFtJKMnbLoqRPiEm8wPxR6xhVwfPC/IVi/a53+XW0TDVZLtfJbC6+jbBjmc67/xTa7YuPjXcHkWaclyW+4EOMpXuGjXr5clpPsDIFwJVB5C1znWL5ZnnU/jr/qixPsAld6lNIvC1Pdd5xkiJgIY43qLRMj/bR4Pitwd01C28TM43enJEJV8A73ZPcoz8HFqVwt1cpvvP8ZTVCmqfu4RymLvRAVG98wMZt8fSHBJGXcY2x3534SKH0LvE8qcfKiClWf7OTNT/z7tX0CXWxKJks/kvh5pfiTHBwJupUa683SxPhYZHcJ7xbSoDz8xsLeKJi/elUwkFme/PgK5N8R4R7zplP27DulIZO2Be6TQhZmnP9cFGv7Z6qwSUPKoo9LvxejySZ5f+BOjBzX0IZKt6hj9JF/SY9JuZN5+G2kGw9jWlHhePz3h64V6nhLbLD+2sRZElMRO9p5QoeY/HHZuji9n1DaLYbQ4eIZJBB6947BnxeLnf6VRg/WbzvNzF9xowh7zDK5OlNYJuVq+ojAqZzWiVymycTVYyXBuHYLwxNLlxbIy2/3qlvmq0leF29U/vved7Hse1Rh8uuLMI1S+d+K1O1XPFlfpqzcicQddrGwWeABiImDg6qh5hLmhxubBB60Vgj1Arq/JxBuRamlCm4V4P+jsFBgx9wifEpIg9is4mxScdrivxDVRg/Wzv3KmL9Ir7eKEumHVefLxPXZtU7ugRK686xi4yPqZWyXZdCRPPzGYzLvJ4yJiIj3JojNertwGx+OWDvMd9Ywh6XRRGXM33OsMJKu0vdfImUFP2er1JR9siDHvkIW7GNCe2GcgNwfhEqppwSRR89c4UgBOkbAGJT3F6I0RwWvC6O8Cgy4U1jnlVWanS5BNija5y5XDfWTMHqeEE5IAXZiohPsEPBHKWLjN/447w/YEhmzwUWllOdYd5XaZlwPCU1T7kdefhvqxsS45ntjIkqmzF8Pv3RllF8jGD2oDGUAG0VpmAqo+1y0otC3LVAEehRicGW9lTJhCOmhOgEZnFMJtZbQWgEd0UU40ZXzQnuc4NPx+mCS1/uFyp8toOufkfKkn+zYrwnoAnsFIpZKaYEETVdW6TdKdI5T5nGvD2tK8FLFf7RWC9bXXcpzqjVE4jCgnyMy6FxefrN5zLhYBxDRwT8EFr5RZ2VYB+anK13FCK+MOt5nfCIqJurCx039ikL5Ziq0cGZrIQav7AvKP+y+j1D6kkAHpriypAnRCPKvCB0iwkQQXBtoM0pnqQA5rhc3C6cKGLCtcL1gG5iyFVEbSaGbNsAWgUVWCfWVEJuc6coqJYpo53XwHOW/IxAdEkb67eI36qZ7gI+ry0bB5yX/I6Eh0gB1iv5tFpjHaVJefmMMrAWbM5coz1r4lfCC0F0wwt8W4bHgOwlEH88LfxZuF7DPBuFYARojcICuFboIZelEcaAEMEFKEadoa8dwsVJk3hTe5cqSJDx4Wbt3JhEUL4bgemHypHzfJ/QR0qDPSwmGXi9cUIXCqyXr9zOrPCfJuV4/mVBptEUkdZqntyFlL3NjnJlBp/Lymw3li8rgUzYKNgE2h2FClL6kAq7V8DBf8fkygTVJ1HerQB3rg4OB+t8KHYVYZAsdQQwel5aKEZlFcQUifOc7eXT0i9TF+TxPTBsF5H1gSNstlQ10CFuAEJsQnPRQJK7SrE+iQaKFYkT0NEi4VDhZiF4bTlDZhQK6qE9Et4jbFli3mJK9xMfuhtwYJ0O4wt09LnE1QH5HXAHH10JpV5fHECcJhGFLBBsHhggULBAskNAC/cV/l8CmYLvMI8qzsJYLcWmaGJF5RmD34upBKD5RiBIbR+toob4vF9CxrkCdX9RdH7YhoGejQNjF/TNK81SATjaMQMECwQIJLbBF/CwgQIhOKG6RwDjl4xKvn+iwux/39VcF7j0+fU0f6H9RYKH71Fcf1pdufoWXH608EcY1ruxcpSZDSOUTG96Dwi4h2g+fL+SDBYIFiljAFhfpCIEFTH6lQCQQl4g2kGNTGSxsFqYKUfqTCqxNNpEo3akC6mcJfvs8nNYJPK7MFrhWQLxVwL9UIGox6qgMkRH8k60wpMECwQLJLGCLlcU3VHhZeEXoLSShkWL+l4D8a8JtQiHi0XOPQLt3F2JQGRvLdmGbsErgJRa9C4XThCiNV8EGAZ5HHYgakD1DCBQsECxQoQVYjCxYrgMs2heEM4VKiN8FDBLaxhCeIZ6byvD1VP3pQqcyfFQTbRwnDBH6uG8lgYIFggWqtcDhUjBaIApoVa2ymPK/Ft+lMXkDW7BAsEAjssBAjXWn0L4RjTkMNVggWCCGBbgu8F7w1Ri8gSVYIFggRwv8H8PzZssPCHyFAAAAAElFTkSuQmCC;" parent="1" vertex="1">
          <mxGeometry x="72.5" y="500.11" width="95" height="13.67" as="geometry" />
        </mxCell>
        <mxCell id="6rgcdNTC2bKChod3cp9X-33" value="" style="shape=image;verticalLabelPosition=bottom;labelBackgroundColor=default;verticalAlign=top;aspect=fixed;imageAspect=0;image=data:image/png,iVBORw0KGgoAAAANSUhEUgAAAQgAAAAmCAYAAAA4JwUNAAABW2lDQ1BJQ0MgUHJvZmlsZQAAKJF1kL1Lw1AUxU9qJaKBKjiJQsDFIUpptepYq6hQMNQP/AAhTdtU6MfrS6wIbrq5+A/o5P+gOOmsmyII7urkIBZBS7wvVdsqXrjcH4fzLvcdwNdmMJbzA8gXHJ6YnlCXV1ZV+QEdkCCjByOGabOorsfJgu/ZXJVb8lJdD4pdkd3ya7Hr6OZZfXq83Ff2/vqbqj2Vtk2aH9RBk3EHkDRifcthgneIuzkdRXwg2KrxseBkjU89z0IiRnxF3GlmjRTxPbGWbNCtBs7nNs2vG8T1SrqwOC/2UPdCxwziUBHCKCKYwhiW/vEPe/4YimDYBscGLGTh0NsoKQw5pIlnUYCJIWjeziB1WOT8O7+6xuaA8TLgM+ra+iRw0g8ESnVtgP4TyAAXa8zgxk+qUsVvZ8KhGiscaH1z3Zc+QD4Dqtx13w9dt0oZttwB56VPyc5iK2/hwVsAAAXiZVhJZk1NACoAAAAIAAQBGgAFAAAAAQAAAD4BGwAFAAAAAQAAAEYBKAADAAAAAQACAACHaQAEAAAAAQAAAE4AAAAAAAAAkAAAAAEAAACQAAAAAQADkoYABwAABWkAAAB4oAIABAAAAAEAAAEIoAMABAAAAAEAAAAmAAAAAEFTQ0lJAAAAQUFBRkFuamFiVk5kYkJ0RkVKNjlUZHNrYmVKTDBwODAvYnNTQnhMNlE1SUdHbHgrNGpSMUc1cTRQMmNuVG1MWApyTTlyKzVyem5ibGJKM0dzU1B1QUNrTHd3Rk5wSDRBNFFsQ0VnQ0tvVUNWQUNBSUlvUWlTQ0NvaFFIM3FDK3BEClh4Q3FrRmovVUFycXJrNDNNN3N6ODgwM3M3R01vVHVzczNNVlNiaHF6ZHAxdFNIM0ZMVWQzVExIM01UV1VyclEKQW01bVpVSnVLM2FXYXN4cEJIVHU5YWpzOHF2SGFZN0d2WlZMUDFUWEJHekxZaHk5Sis5ZXY2SHQvZ2ZhT3g3YwpzM2ZmL29jZVB2UlkzOEJUeDArZEhwODRRMmppYkRyRHNrRzNtVFdNbGJwNmw5emlIdldyK3lkcHpoa1gvMHFTCkViZG1FTWU1MU5EWXRISFQ1aTNOVzduRU1hL2lhL2hhdm81WDh4cGVlMm5iOWgwN2R5bTc3MnZsNi9rR1hzOWQKdklHMzhHMThCOS9KbFZDTU9OVFFUUnJVTE1PeUEya3JUb05NWndZTlpXeEswakdEUnRJa2Flb0pYU05NbEJ1SQpFMFpGV1RHaVRTWnRLMnZHRHhjZHh4MHJhMnMwUUdkWUsxVFdTbWVYcS90QVQ5Q3ZuajdhSC9hcnBZdHFobWpVCjE2bUlEVExpZGN1UEhPeDlkTHhjaGtuU05GUVdxVE5hY1NqMGVrSis5VVNwWHJscTJmWDRFMCtPQ1FJY1p1dG0Ka3NzblJRQnZmNG5uNFN3akFxOWFPbG53SGk3NmxaV1ZJeTdmMFdPRGQzUUJ4c3VFRk1zeTZ2Qkd2cFUzUmVYbApjTnpTc21scXNoS0NpYTdPREl2a2ljMTB6YUJ6dGVHc1F3WDJTWktrRTBJc1luVWkrUkpyYzBxYnNNU1ZoR1dMCnoyUkt5WHEzUjU2a0hTZVhqb21iYWNKU3p2L1Bpc1o3blUxa1dhSTNrdGZOakVCcWF1VkVpYXloTUV0aHVReFYKNHJvdGVERnlRaUNhclF1c2lwWWlOdEdZbU03YTR1QU0rVS9PRC9PTjh5ZjRKdDQ4NGxkOUF1Q3FHZ2k2UmtaRApZMEpYOVZrcWlFbjRESkowaE80WGhiWDJ0WmRiS010OE05OHlNbXlaUkxNRTArRklKVUloN0JGcTlHbkI1SUN1CkZRZUQyTGxDdEdpTWFWRzU4UzZDNDJYT0MzSFBQZTJ0ZmQzbFhNdEpWMG92empqVEJRTHZZbTYyK3ZMVkMzeTcKQ0RscGlMUURZdkFLazU3aVZKa0hlbnhkaXRqQTY0cTlmZWJZSU45VjdtSkhJcHJYOTJyT25PSlJ3Z1BVWUVRWgpVc0sybmt3eFl0dlc5RDlHZlViRW5acU95azEzQnVmZlFoYW1vaDZvaGdab0FUZDBRRGNjaEVFWWdsT2d3alRNCndiUHdJcHlIVitFdGVCdmVnWGZoZmZnQVBvUXI4REZjaFMvaEsvZ0d2b1h2WUFtK2gyVlloUi9oR2x5SEcvQTcKM0lMYnFBYlZJd1h0UVQzb0VQSWlQd3FpVVRTR3ppQWQyV2dXemFGejZIbjBFanFQTHFDTDZEVjBHWDJFUGtXTAphQW45akg1QnY2SHIwaFhwRStrejZYUHBDMmxSK2xwYWtuNlNmcFZ1U0RlbFA2US9wZHZTWDdnSzEyQVpOK0ZtCjNJYmI4VDdjajQvZ2NhemhGTTdnSE01ampwL0RMK0NYOFN2NElwN0hDL2dOL0NaZXdkZnd6WElUSkZSNXZEUHcKbjRWdi9RMDNpNThLAJBwfvUAAAAJcEhZcwAAFiUAABYlAUlSJPAAAAhRaVRYdFhNTDpjb20uYWRvYmUueG1wAAAAAAA8eDp4bXBtZXRhIHhtbG5zOng9ImFkb2JlOm5zOm1ldGEvIiB4OnhtcHRrPSJYTVAgQ29yZSA2LjAuMCI+CiAgIDxyZGY6UkRGIHhtbG5zOnJkZj0iaHR0cDovL3d3dy53My5vcmcvMTk5OS8wMi8yMi1yZGYtc3ludGF4LW5zIyI+CiAgICAgIDxyZGY6RGVzY3JpcHRpb24gcmRmOmFib3V0PSIiCiAgICAgICAgICAgIHhtbG5zOnRpZmY9Imh0dHA6Ly9ucy5hZG9iZS5jb20vdGlmZi8xLjAvIgogICAgICAgICAgICB4bWxuczpleGlmPSJodHRwOi8vbnMuYWRvYmUuY29tL2V4aWYvMS4wLyI+CiAgICAgICAgIDx0aWZmOllSZXNvbHV0aW9uPjE0NDwvdGlmZjpZUmVzb2x1dGlvbj4KICAgICAgICAgPHRpZmY6WFJlc29sdXRpb24+MTQ0PC90aWZmOlhSZXNvbHV0aW9uPgogICAgICAgICA8dGlmZjpSZXNvbHV0aW9uVW5pdD4yPC90aWZmOlJlc29sdXRpb25Vbml0PgogICAgICAgICA8ZXhpZjpQaXhlbFlEaW1lbnNpb24+Mzg8L2V4aWY6UGl4ZWxZRGltZW5zaW9uPgogICAgICAgICA8ZXhpZjpVc2VyQ29tbWVudD5BQUFGQW5qYWJWTmRiQnRGRUo2OVRkc2tiZUpMMHA4MC9ic1NCeEw2UTVJR0dseCs0alIxRzVxNFAyY25UbUxYJiN4QTtyTTlyKzVyem5ibGJKM0dzU1B1QUNrTHd3Rk5wSDRBNFFsQ0VnQ0tvVUNWQUNBSUlvUWlTQ0NvaFFIM3FDK3BEJiN4QTtYeENxa0ZqL1VBcnFyazQzTTdzejg4MDNzN0dNb1R1c3MzTVZTYmhxemRwMXRTSDNGTFVkM1RMSDNNVFdVcnJRJiN4QTtBbTVtWlVKdUszYVdhc3hwQkhUdTlhanM4cXZIYVk3R3ZaVkxQMVRYQkd6TFloeTlKKzlldjZIdC9nZmFPeDdjJiN4QTtzM2ZmL29jZVB2UlkzOEJUeDArZEhwODRRMmppYkRyRHNrRzNtVFdNbGJwNmw5emlIdldyK3lkcHpoa1gvMHFTJiN4QTtFYmRtRU1lNTFORFl0SEhUNWkzTlc3bkVNYS9pYS9oYXZvNVg4eHBlZTJuYjloMDdkeW03NzJ2bDYva0dYczlkJiN4QTt2SUczOEcxOEI5L0psVkNNT05UUVRSclVMTU95QTJrclRvTk1ad1lOWld4SzBqR0RSdElrYWVvSlhTTk1sQnVJJiN4QTtFMFpGV1RHaVRTWnRLMnZHRHhjZHh4MHJhMnMwUUdkWUsxVFdTbWVYcS90QVQ5Q3ZuajdhSC9hcnBZdHFobWpVJiN4QTsxNm1JRFRMaWRjdVBIT3g5ZEx4Y2hrblNORlFXcVROYWNTajBla0orOVVTcFhybHEyZlg0RTArT0NRSWNadXRtJiN4QTtrc3NuUlFCdmY0bm40U3dqQXE5YU9sbndIaTc2bFpXVkl5N2YwV09EZDNRQnhzdUVGTXN5NnZCR3ZwVTNSZVhsJiN4QTtjTnpTc21scXNoS0NpYTdPREl2a2ljMTB6YUJ6dGVHc1F3WDJTWktrRTBJc1luVWkrUkpyYzBxYnNNU1ZoR1dMJiN4QTt6MlJLeVhxM1I1NmtIU2VYam9tYmFjSlN6di9QaXNaN25VMWtXYUkza3RmTmpFQnFhdVZFaWF5aE1FdGh1UXhWJiN4QTs0cm90ZURGeVFpQ2FyUXVzaXBZaU50R1ltTTdhNHVBTStVL09EL09OOHlmNEp0NDg0bGQ5QXVDcUdnaTZSa1pEJiN4QTtZMEpYOVZrcWlFbjRESkowaE80WGhiWDJ0WmRiS010OE05OHlNbXlaUkxNRTArRklKVUloN0JGcTlHbkI1SUN1JiN4QTtGUWVEMkxsQ3RHaU1hVkc1OFM2QzQyWE9DM0hQUGUydGZkM2xYTXRKVjBvdnpqalRCUUx2WW02Mit2TFZDM3k3JiN4QTtDRGxwaUxRRFl2QUtrNTdpVkprSGVueGRpdGpBNjRxOWZlYllJTjlWN21KSElwclg5MnJPbk9KUndnUFVZRVFaJiN4QTtVc0sybmt3eFl0dlc5RDlHZlViRW5acU95azEzQnVmZlFoYW1vaDZvaGdab0FUZDBRRGNjaEVFWWdsT2d3alRNJiN4QTt3YlB3SXB5SFYrRXRlQnZlZ1hmaGZmZ0FQb1FyOERGY2hTL2hLL2dHdm9YdllBbStoMlZZaFIvaEdseUhHL0E3JiN4QTszSUxicUFiVkl3WHRRVDNvRVBJaVB3cWlVVFNHemlBZDJXZ1d6YUZ6NkhuMEVqcVBMcUNMNkRWMEdYMkVQa1dMJiN4QTthQW45akg1QnY2SHIwaFhwRStrejZYUHBDMmxSK2xwYWtuNlNmcFZ1U0RlbFA2US9wZHZTWDdnSzEyQVpOK0ZtJiN4QTszSWJiOFQ3Y2o0L2djYXpoRk03Z0hNNWpqcC9ETCtDWDhTdjRJcDdIQy9nTi9DWmV3ZGZ3elhJVEpGUjV2RFB3JiN4QTtuNFZ2L1EwM2k1OEs8L2V4aWY6VXNlckNvbW1lbnQ+CiAgICAgICAgIDxleGlmOlBpeGVsWERpbWVuc2lvbj4yNjQ8L2V4aWY6UGl4ZWxYRGltZW5zaW9uPgogICAgICA8L3JkZjpEZXNjcmlwdGlvbj4KICAgPC9yZGY6UkRGPgo8L3g6eG1wbWV0YT4KFXNm0QAADE1JREFUeAHtmnu0V0UVx3mqgAgiUsRDBAkFIwxQwQICsSJNI80UlEWB/VHmSsXKlWQpgZmoV2RZVguNgEyCWKtlZcENJKQsFQ0rQlBEQDQQ8IH2+n50tgyH3+Oc3++c37lwZ6/1vTNnZu89M3vPY8/cX5MmgYIFggWCBYpYoHmR8lDc8CzQRl1qJvyn4XUt9KiEBRqd33rIGDOEnwvThKFCoGwtMEDq3xBeFDpm21TQnqIFGp3fzpHxmKh7hQXCWuF/wg1CoOwssESqsTO4KYNmlkvnVuFZYZ3wpPCY8LjwlPC08JwAzzwhUDwLZO03etFOIErJnfqqB68LTNJJwqnC8+77JaWBsrHAQKm1zYF0t5B2FPEt6bxHeEAwH1ubO1z5fKV3C58RApW3QC38RiSPv7YLR5fvUrYcc6TeJmhL5ee6b8o2CIGyscAvpNYWq6VMjKzoYSm2djYp3z6rhg5xvVn7rY/s91/BfDU2T3t2UuNcLejM71xHvuK+6eQVriwk6VrgA1KHzbnK/dvl+c4iipDaJq0Fro826e6gMFBiC9TCbz3UK4v2dirfLXEvUxS4ULps0kx3eg9T+nHhve47JOlbYLFUsgEPEPyIDV+YH5RNjUZJk/mZNNdTKbVR1V5Rrfz2EQ3tciHtK2dii82UhE2c8xNLB4FKLHCKs/kiJ0xIyb84zQ9EEce4urQSHptNPxtT2vrT6mdD1pOH33K3B6/cNnF6596bxtEBNgaLHmzEP1HG/ED6batIKV3h6V+Tks5aqxmuBn8jnFnrhl17efgtp6G+3WxTJbsEJuQeoZkQKFsLcAqxOVj0YK2dqIwfReCXtE75VtLlvz/UWaMHWXqR+stcZZOoNeXht1qP8YD2iBgwOFh1QG0oyMIC/AgtGj1YO/OUMX+QTrOKKtND5f2hs+yA7dhIu1dpk6TitfBbe3Xqg0LSt78OkhkqDBFaCFHiHWOE0F9oLpSkWap9WtggbBX8CUkZoH6S0JiIRbRMeEj4aEYD50GSCR6NHqy5k5SJRhE4v1ritxDmZ9pPKzKptl+VyC9xY7muEuEKZWrhtynqm/3nAl+tFsr5/kjx/Fjw/wvG7yamCtwOjhKih85zKjtbKEpXqGa+w26lNnFWeuU0errQWIhddZNgttipPGVpU6lTyNrCN9YP0jSiCP+daY01dJCmnJLYhYlebgGlNcSs/XaJOsrBwKbXVmBzYIw/EIoRmzx824TJAnIfEvhhI7LXCkuFXcJ4oauwWaBuhxBrfi92AggNFhorHauBYwPDq8q3TNkY75e+UtGDNcevWpks1peXla9mIbSS/F5PX53yBzvVawDYh1+HclJmSVn77Xh1/jXhdm8QK5RnfOu9Mj/LmOEhWuA/YD7N1IfNHVJ+rgDZb5usjjlflp4RBwKEKEykxkxMNjMePztOmxZKIRsE4Wo5WiAG6wvpjeUEStSPjOgaW4L3YKnqpY5yCmKbNCKsUuPO2m9sDIyFH7JB7QTb0Ne8VXLgnwkqYuxnHVjV5Ouujvp6r/67XnkxvR7726cSSsCT+9U0zg9CrmFCFpFUf+mNEz2Y5fspE40ijrbKhOmh9P7gD/1j+rCFxD27jV+ZUj5rvx2mfhIhzvb6O1F5W5d3eOV+9gl9rPYLvPy9ypv8BK+cK8kMYYrAo2VZ8k+WuWW59zGMU3ajcNW+opArY4H7VR83ejBVP1XGHE16g1UkTJd7emKdHAn1F2JnsXauAZiLZqN1yl8sNBPSoqz9xvWCg2Cg1+FlytuYRnvllj1CGR4z2SAL0VMqNPkuhRjill3pKbo6rpD4cAQdYNcOVN4CSU8h00gUwaZizuakSRpFtJKMnbLoqRPiEm8wPxR6xhVwfPC/IVi/a53+XW0TDVZLtfJbC6+jbBjmc67/xTa7YuPjXcHkWaclyW+4EOMpXuGjXr5clpPsDIFwJVB5C1znWL5ZnnU/jr/qixPsAld6lNIvC1Pdd5xkiJgIY43qLRMj/bR4Pitwd01C28TM43enJEJV8A73ZPcoz8HFqVwt1cpvvP8ZTVCmqfu4RymLvRAVG98wMZt8fSHBJGXcY2x3534SKH0LvE8qcfKiClWf7OTNT/z7tX0CXWxKJks/kvh5pfiTHBwJupUa683SxPhYZHcJ7xbSoDz8xsLeKJi/elUwkFme/PgK5N8R4R7zplP27DulIZO2Be6TQhZmnP9cFGv7Z6qwSUPKoo9LvxejySZ5f+BOjBzX0IZKt6hj9JF/SY9JuZN5+G2kGw9jWlHhePz3h64V6nhLbLD+2sRZElMRO9p5QoeY/HHZuji9n1DaLYbQ4eIZJBB6947BnxeLnf6VRg/WbzvNzF9xowh7zDK5OlNYJuVq+ojAqZzWiVymycTVYyXBuHYLwxNLlxbIy2/3qlvmq0leF29U/vved7Hse1Rh8uuLMI1S+d+K1O1XPFlfpqzcicQddrGwWeABiImDg6qh5hLmhxubBB60Vgj1Arq/JxBuRamlCm4V4P+jsFBgx9wifEpIg9is4mxScdrivxDVRg/Wzv3KmL9Ir7eKEumHVefLxPXZtU7ugRK686xi4yPqZWyXZdCRPPzGYzLvJ4yJiIj3JojNertwGx+OWDvMd9Ywh6XRRGXM33OsMJKu0vdfImUFP2er1JR9siDHvkIW7GNCe2GcgNwfhEqppwSRR89c4UgBOkbAGJT3F6I0RwWvC6O8Cgy4U1jnlVWanS5BNija5y5XDfWTMHqeEE5IAXZiohPsEPBHKWLjN/447w/YEhmzwUWllOdYd5XaZlwPCU1T7kdefhvqxsS45ntjIkqmzF8Pv3RllF8jGD2oDGUAG0VpmAqo+1y0otC3LVAEehRicGW9lTJhCOmhOgEZnFMJtZbQWgEd0UU40ZXzQnuc4NPx+mCS1/uFyp8toOufkfKkn+zYrwnoAnsFIpZKaYEETVdW6TdKdI5T5nGvD2tK8FLFf7RWC9bXXcpzqjVE4jCgnyMy6FxefrN5zLhYBxDRwT8EFr5RZ2VYB+anK13FCK+MOt5nfCIqJurCx039ikL5Ziq0cGZrIQav7AvKP+y+j1D6kkAHpriypAnRCPKvCB0iwkQQXBtoM0pnqQA5rhc3C6cKGLCtcL1gG5iyFVEbSaGbNsAWgUVWCfWVEJuc6coqJYpo53XwHOW/IxAdEkb67eI36qZ7gI+ry0bB5yX/I6Eh0gB1iv5tFpjHaVJefmMMrAWbM5coz1r4lfCC0F0wwt8W4bHgOwlEH88LfxZuF7DPBuFYARojcICuFboIZelEcaAEMEFKEadoa8dwsVJk3hTe5cqSJDx4Wbt3JhEUL4bgemHypHzfJ/QR0qDPSwmGXi9cUIXCqyXr9zOrPCfJuV4/mVBptEUkdZqntyFlL3NjnJlBp/Lymw3li8rgUzYKNgE2h2FClL6kAq7V8DBf8fkygTVJ1HerQB3rg4OB+t8KHYVYZAsdQQwel5aKEZlFcQUifOc7eXT0i9TF+TxPTBsF5H1gSNstlQ10CFuAEJsQnPRQJK7SrE+iQaKFYkT0NEi4VDhZiF4bTlDZhQK6qE9Et4jbFli3mJK9xMfuhtwYJ0O4wt09LnE1QH5HXAHH10JpV5fHECcJhGFLBBsHhggULBAskNAC/cV/l8CmYLvMI8qzsJYLcWmaGJF5RmD34upBKD5RiBIbR+toob4vF9CxrkCdX9RdH7YhoGejQNjF/TNK81SATjaMQMECwQIJLbBF/CwgQIhOKG6RwDjl4xKvn+iwux/39VcF7j0+fU0f6H9RYKH71Fcf1pdufoWXH608EcY1ruxcpSZDSOUTG96Dwi4h2g+fL+SDBYIFiljAFhfpCIEFTH6lQCQQl4g2kGNTGSxsFqYKUfqTCqxNNpEo3akC6mcJfvs8nNYJPK7MFrhWQLxVwL9UIGox6qgMkRH8k60wpMECwQLJLGCLlcU3VHhZeEXoLSShkWL+l4D8a8JtQiHi0XOPQLt3F2JQGRvLdmGbsErgJRa9C4XThCiNV8EGAZ5HHYgakD1DCBQsECxQoQVYjCxYrgMs2heEM4VKiN8FDBLaxhCeIZ6byvD1VP3pQqcyfFQTbRwnDBH6uG8lgYIFggWqtcDhUjBaIApoVa2ymPK/Ft+lMXkDW7BAsEAjssBAjXWn0L4RjTkMNVggWCCGBbgu8F7w1Ri8gSVYIFggRwv8H8PzZssPCHyFAAAAAElFTkSuQmCC;" parent="1" vertex="1">
          <mxGeometry x="312.5" y="500.11" width="95" height="13.67" as="geometry" />
        </mxCell>
        <mxCell id="bjlcI9ahJtDlbC0yJPyI-2" value="" style="shape=curlyBracket;whiteSpace=wrap;html=1;rounded=1;flipH=1;labelPosition=right;verticalLabelPosition=middle;align=left;verticalAlign=middle;direction=south;size=0.5;" vertex="1" parent="1">
          <mxGeometry x="-68" y="80" width="698" height="20" as="geometry" />
        </mxCell>
      </root>
    </mxGraphModel>
  </diagram>
</mxfile>
